<?xml version="1.0" encoding="utf-8" ?>
<svg baseProfile="full" height="100%" version="1.1" width="100%" xmlns="http://www.w3.org/2000/svg" xmlns:ev="http://www.w3.org/2001/xml-events" xmlns:xlink="http://www.w3.org/1999/xlink"><defs /><path d="M 6005.0,6490.0 C 6005.0,6490.0 6005.0,6490.0 6005.0,6490.0 M 6005.0,6478.0 C 6005.0,6478.0 6005.0,6478.0 6005.0,6478.0 M 5922.0,6443.0 C 5922.0,6443.0 5922.0,6443.0 5922.0,6443.0 M 5733.0,6300.0 C 5733.0,6300.0 5733.0,6300.0 5733.0,6300.0 M 5670.0,6205.0 C 5670.0,6205.0 5670.0,6205.0 5670.0,6205.0 M 5607.0,6098.0 C 5607.0,6098.0 5607.0,6098.0 5607.0,6098.0 M 5600.0,6085.0 C 5600.0,6085.0 5600.0,6085.0 5600.0,6085.0 M 5584.0,6079.0 C 5584.0,6079.0 5584.0,6079.0 5584.0,6079.0 M 5588.0,6074.0 C 5588.0,6074.0 5588.0,6074.0 5588.0,6074.0 M 5556.0,6011.0 C 5556.0,6011.0 5556.0,6011.0 5556.0,6011.0 M 5479.0,5891.0 C 5479.0,5891.0 5479.0,5891.0 5479.0,5891.0 M 5429.0,5800.0 C 5429.0,5800.0 5429.0,5800.0 5429.0,5800.0 M 5381.0,5716.0 C 5381.0,5716.0 5381.0,5716.0 5381.0,5716.0 M 5350.0,5679.0 C 5350.0,5679.0 5350.0,5679.0 5350.0,5679.0 M 5370.0,5740.0 C 5370.0,5740.0 5370.0,5740.0 5370.0,5740.0 M 5380.0,5785.0 C 5380.0,5785.0 5380.0,5785.0 5380.0,5785.0 M 5404.0,5852.0 C 5404.0,5852.0 5404.0,5852.0 5404.0,5852.0 M 5524.0,6116.0 C 5524.0,6116.0 5524.0,6116.0 5524.0,6116.0 M 5570.0,6168.0 C 5570.0,6168.0 5570.0,6168.0 5570.0,6168.0 M 5554.0,6125.0 C 5554.0,6125.0 5554.0,6125.0 5554.0,6125.0 M 5573.0,6122.0 C 5573.0,6122.0 5573.0,6122.0 5573.0,6122.0 M 5624.0,6212.0 C 5624.0,6212.0 5624.0,6212.0 5624.0,6212.0 M 5688.0,6294.0 C 5688.0,6294.0 5688.0,6294.0 5688.0,6294.0 M 5668.0,6309.0 C 5668.0,6309.0 5668.0,6309.0 5668.0,6309.0 M 5479.0,6089.0 C 5479.0,6089.0 5479.0,6089.0 5479.0,6089.0 M 5339.0,5738.0 C 5339.0,5738.0 5339.0,5738.0 5339.0,5738.0 M 5309.0,5675.0 C 5309.0,5675.0 5309.0,5675.0 5309.0,5675.0 M 5268.0,5565.0 C 5268.0,5565.0 5268.0,5565.0 5268.0,5565.0 M 5304.0,5351.0 C 5304.0,5351.0 5304.0,5351.0 5304.0,5351.0 M 5325.0,5305.0 C 5325.0,5305.0 5325.0,5305.0 5325.0,5305.0 M 5328.0,5354.0 C 5328.0,5354.0 5328.0,5354.0 5328.0,5354.0 M 5313.0,5422.0 C 5313.0,5422.0 5313.0,5422.0 5313.0,5422.0 M 5308.0,5642.0 C 5308.0,5642.0 5308.0,5642.0 5308.0,5642.0 M 5314.0,5582.0 C 5314.0,5582.0 5314.0,5582.0 5314.0,5582.0 M 5337.0,5533.0 C 5337.0,5533.0 5337.0,5533.0 5337.0,5533.0 M 5389.0,5670.0 C 5389.0,5670.0 5389.0,5670.0 5389.0,5670.0 M 5743.0,6220.0 C 5743.0,6220.0 5743.0,6220.0 5743.0,6220.0 M 5739.0,6203.0 C 5739.0,6203.0 5739.0,6203.0 5739.0,6203.0 M 5748.0,6204.0 C 5748.0,6204.0 5748.0,6204.0 5748.0,6204.0 M 5760.0,6225.0 C 5760.0,6225.0 5760.0,6225.0 5760.0,6225.0 M 5750.0,6229.0 C 5750.0,6229.0 5750.0,6229.0 5750.0,6229.0 M 5759.0,6240.0 C 5759.0,6240.0 5759.0,6240.0 5759.0,6240.0 M 5828.0,6295.0 C 5828.0,6295.0 5828.0,6295.0 5828.0,6295.0 M 5893.0,6343.0 C 5893.0,6343.0 5893.0,6343.0 5893.0,6343.0 M 5906.0,6354.0 C 5906.0,6354.0 5906.0,6354.0 5906.0,6354.0 M 5959.0,6394.0 C 5959.0,6394.0 5959.0,6394.0 5959.0,6394.0 M 6037.0,6448.0 C 6037.0,6448.0 6037.0,6448.0 6037.0,6448.0 M 6373.0,6551.0 C 6373.0,6551.0 6373.0,6551.0 6373.0,6551.0 M 6410.0,6561.0 C 6410.0,6561.0 6410.0,6561.0 6410.0,6561.0 M 6140.0,6555.0 C 6078.0,6511.2 5892.0,6379.8 5830.0,6336.0 M 5818.0,6324.0 C 5818.0,6324.0 5818.0,6324.0 5818.0,6324.0 M 5814.0,6328.0 C 5814.0,6328.0 5814.0,6328.0 5814.0,6328.0 M 5830.0,6336.0 C 5826.0,6330.0 5814.0,6312.0 5810.0,6306.0 M 5798.0,6294.0 C 5798.0,6294.0 5798.0,6294.0 5798.0,6294.0 M 5794.0,6298.0 C 5794.0,6298.0 5794.0,6298.0 5794.0,6298.0 M 5810.0,6306.0 C 5774.0,6267.8 5666.0,6153.2 5630.0,6115.0 M 5625.0,6110.0 C 5625.0,6110.0 5625.0,6110.0 5625.0,6110.0 M 5620.0,6115.0 C 5620.0,6115.0 5620.0,6115.0 5620.0,6115.0 M 5625.0,6120.0 C 5625.0,6120.0 5625.0,6120.0 5625.0,6120.0 M 5630.0,6115.0 C 5573.4,6016.6 5403.6,5721.4 5347.0,5623.0 M 5340.0,5630.0 C 5340.0,5630.0 5340.0,5630.0 5340.0,5630.0 M 5347.0,5637.0 C 5347.0,5637.0 5347.0,5637.0 5347.0,5637.0 M 5347.0,5623.0 C 5345.6,5619.4 5341.4,5608.6 5340.0,5605.0 M 5335.0,5600.0 C 5335.0,5600.0 5335.0,5600.0 5335.0,5600.0 M 5330.0,5605.0 C 5330.0,5605.0 5330.0,5605.0 5330.0,5605.0 M 5335.0,5610.0 C 5335.0,5610.0 5335.0,5610.0 5335.0,5610.0 M 5340.0,5605.0 C 5568.0,5793.2 6252.0,6357.8 6480.0,6546.0 M 6540.0,6540.0 C 6540.0,6540.0 6540.0,6540.0 6540.0,6540.0 M 6515.0,6548.0 C 6515.0,6548.0 6515.0,6548.0 6515.0,6548.0 M 6480.0,6546.0 C 6498.4,6544.4 6553.6,6539.6 6572.0,6538.0 M 6603.0,6531.0 C 6603.0,6531.0 6603.0,6531.0 6603.0,6531.0 M 6650.0,6520.0 C 6650.0,6520.0 6650.0,6520.0 6650.0,6520.0 M 6493.0,6509.0 C 6493.0,6509.0 6493.0,6509.0 6493.0,6509.0 M 6299.0,6467.0 C 6299.0,6467.0 6299.0,6467.0 6299.0,6467.0 M 6280.0,6465.0 C 6280.0,6465.0 6280.0,6465.0 6280.0,6465.0 M 6273.0,6463.0 C 6273.0,6463.0 6273.0,6463.0 6273.0,6463.0 M 6128.0,6425.0 C 6128.0,6425.0 6128.0,6425.0 6128.0,6425.0 M 5961.0,6346.0 C 5961.0,6346.0 5961.0,6346.0 5961.0,6346.0 M 6100.0,6398.0 C 6100.0,6398.0 6100.0,6398.0 6100.0,6398.0 M 6111.0,6405.0 C 6111.0,6405.0 6111.0,6405.0 6111.0,6405.0 M 6270.0,6435.0 C 6270.0,6435.0 6270.0,6435.0 6270.0,6435.0 M 6350.0,6471.0 C 6350.0,6471.0 6350.0,6471.0 6350.0,6471.0 M 6097.0,6359.0 C 6097.0,6359.0 6097.0,6359.0 6097.0,6359.0 M 6086.0,6348.0 C 6086.0,6348.0 6086.0,6348.0 6086.0,6348.0 M 6082.0,6343.0 C 6082.0,6343.0 6082.0,6343.0 6082.0,6343.0 M 5967.0,6275.0 C 5967.0,6275.0 5967.0,6275.0 5967.0,6275.0 M 5870.0,6180.0 C 5870.0,6180.0 5870.0,6180.0 5870.0,6180.0 M 5835.0,6153.0 C 5835.0,6153.0 5835.0,6153.0 5835.0,6153.0 M 5788.0,6098.0 C 5788.0,6098.0 5788.0,6098.0 5788.0,6098.0 M 5730.0,6018.0 C 5730.0,6018.0 5730.0,6018.0 5730.0,6018.0 M 5656.0,5915.0 C 5656.0,5915.0 5656.0,5915.0 5656.0,5915.0 M 5563.0,5783.0 C 5563.0,5783.0 5563.0,5783.0 5563.0,5783.0 M 5569.0,5767.0 C 5569.0,5767.0 5569.0,5767.0 5569.0,5767.0 M 5616.0,5818.0 C 5616.0,5818.0 5616.0,5818.0 5616.0,5818.0 M 5763.0,5999.0 C 5763.0,5999.0 5763.0,5999.0 5763.0,5999.0 M 5805.0,6048.0 C 5805.0,6048.0 5805.0,6048.0 5805.0,6048.0 M 5965.0,6193.0 C 5965.0,6193.0 5965.0,6193.0 5965.0,6193.0 M 5986.0,6218.0 C 5986.0,6218.0 5986.0,6218.0 5986.0,6218.0 M 5955.0,6200.0 C 5955.0,6200.0 5955.0,6200.0 5955.0,6200.0 M 5930.0,6192.0 C 5930.0,6192.0 5930.0,6192.0 5930.0,6192.0 M 5983.0,6239.0 C 5983.0,6239.0 5983.0,6239.0 5983.0,6239.0 M 6100.0,6310.0 C 6100.0,6310.0 6100.0,6310.0 6100.0,6310.0 M 6350.0,6419.0 C 6350.0,6419.0 6350.0,6419.0 6350.0,6419.0 M 6474.0,6445.0 C 6474.0,6445.0 6474.0,6445.0 6474.0,6445.0 M 6521.0,6460.0 C 6521.0,6460.0 6521.0,6460.0 6521.0,6460.0 M 6775.0,6463.0 C 6775.0,6463.0 6775.0,6463.0 6775.0,6463.0 M 6815.0,6434.0 C 6815.0,6434.0 6815.0,6434.0 6815.0,6434.0 M 6620.0,6430.0 C 6620.0,6430.0 6620.0,6430.0 6620.0,6430.0 M 6505.0,6334.0 C 6505.0,6334.0 6505.0,6334.0 6505.0,6334.0 M 6795.0,6370.0 C 6795.0,6370.0 6795.0,6370.0 6795.0,6370.0 M 6715.0,6347.0 C 6715.0,6347.0 6715.0,6347.0 6715.0,6347.0 M 6615.0,6325.0 C 6615.0,6325.0 6615.0,6325.0 6615.0,6325.0 M 6528.0,6308.0 C 6528.0,6308.0 6528.0,6308.0 6528.0,6308.0 M 6500.0,6300.0 C 6500.0,6300.0 6500.0,6300.0 6500.0,6300.0 M 6441.0,6248.0 C 6441.0,6248.0 6441.0,6248.0 6441.0,6248.0 M 6434.0,6242.0 C 6434.0,6242.0 6434.0,6242.0 6434.0,6242.0 M 6424.0,6211.0 C 6424.0,6211.0 6424.0,6211.0 6424.0,6211.0 M 6378.0,6100.0 C 6378.0,6100.0 6378.0,6100.0 6378.0,6100.0 M 6430.0,6182.0 C 6430.0,6182.0 6430.0,6182.0 6430.0,6182.0 M 6503.0,6268.0 C 6503.0,6268.0 6503.0,6268.0 6503.0,6268.0 M 6566.0,6295.0 C 6566.0,6295.0 6566.0,6295.0 6566.0,6295.0 M 6590.0,6294.0 C 6590.0,6294.0 6590.0,6294.0 6590.0,6294.0 M 6540.0,6248.0 C 6540.0,6248.0 6540.0,6248.0 6540.0,6248.0 M 6650.0,6301.0 C 6650.0,6301.0 6650.0,6301.0 6650.0,6301.0 M 6744.0,6329.0 C 6744.0,6329.0 6744.0,6329.0 6744.0,6329.0 M 6740.0,6320.0 C 6740.0,6320.0 6740.0,6320.0 6740.0,6320.0 M 6730.0,6311.0 C 6730.0,6311.0 6730.0,6311.0 6730.0,6311.0 M 6653.0,6258.0 C 6653.0,6258.0 6653.0,6258.0 6653.0,6258.0 M 6610.0,6238.0 C 6610.0,6238.0 6610.0,6238.0 6610.0,6238.0 M 6593.0,6230.0 C 6593.0,6230.0 6593.0,6230.0 6593.0,6230.0 M 6586.0,6220.0 C 6586.0,6220.0 6586.0,6220.0 6586.0,6220.0 M 6635.0,6225.0 C 6635.0,6225.0 6635.0,6225.0 6635.0,6225.0 M 6792.0,6217.0 C 6792.0,6217.0 6792.0,6217.0 6792.0,6217.0 M 7026.0,5920.0 C 7026.0,5920.0 7026.0,5920.0 7026.0,5920.0 M 7064.0,5825.0 C 7064.0,5825.0 7064.0,5825.0 7064.0,5825.0 M 7062.0,5797.0 C 7062.0,5797.0 7062.0,5797.0 7062.0,5797.0 M 6906.0,5820.0 C 6906.0,5820.0 6906.0,5820.0 6906.0,5820.0 M 6866.0,5755.0 C 6866.0,5755.0 6866.0,5755.0 6866.0,5755.0 M 7049.0,5759.0 C 7049.0,5759.0 7049.0,5759.0 7049.0,5759.0 M 7117.0,5585.0 C 7117.0,5585.0 7117.0,5585.0 7117.0,5585.0 M 7152.0,5435.0 C 7152.0,5435.0 7152.0,5435.0 7152.0,5435.0 M 7213.0,5210.0 C 7213.0,5210.0 7213.0,5210.0 7213.0,5210.0 M 7061.0,4766.0 C 7061.0,4766.0 7061.0,4766.0 7061.0,4766.0 M 6979.0,4617.0 C 6979.0,4617.0 6979.0,4617.0 6979.0,4617.0 M 6853.0,4457.0 C 6853.0,4457.0 6853.0,4457.0 6853.0,4457.0 M 6812.0,4283.0 C 6812.0,4283.0 6812.0,4283.0 6812.0,4283.0 M 6815.0,4160.0 C 6815.0,4160.0 6815.0,4160.0 6815.0,4160.0 M 6807.0,4049.0 C 6807.0,4049.0 6807.0,4049.0 6807.0,4049.0 M 6878.0,3907.0 C 6878.0,3907.0 6878.0,3907.0 6878.0,3907.0 M 6998.0,3567.0 C 6998.0,3567.0 6998.0,3567.0 6998.0,3567.0 M 6968.0,3635.0 C 6968.0,3635.0 6968.0,3635.0 6968.0,3635.0 M 6941.0,3708.0 C 6941.0,3708.0 6941.0,3708.0 6941.0,3708.0 M 6965.0,3613.0 C 6965.0,3613.0 6965.0,3613.0 6965.0,3613.0 M 6997.0,3200.0 C 6997.0,3200.0 6997.0,3200.0 6997.0,3200.0 M 7017.0,2965.0 C 7017.0,2965.0 7017.0,2965.0 7017.0,2965.0 M 7018.0,2910.0 C 7018.0,2910.0 7018.0,2910.0 7018.0,2910.0 M 6651.0,2755.0 C 6651.0,2755.0 6651.0,2755.0 6651.0,2755.0 M 6626.0,2910.0 C 6626.0,2910.0 6626.0,2910.0 6626.0,2910.0 M 6553.0,3183.0 C 6553.0,3183.0 6553.0,3183.0 6553.0,3183.0 M 6437.0,3315.0 C 6437.0,3315.0 6437.0,3315.0 6437.0,3315.0 M 6337.0,3384.0 C 6337.0,3384.0 6337.0,3384.0 6337.0,3384.0 M 6339.0,3398.0 C 6339.0,3398.0 6339.0,3398.0 6339.0,3398.0 M 6332.0,3501.0 C 6332.0,3501.0 6332.0,3501.0 6332.0,3501.0 M 6304.0,3640.0 C 6304.0,3640.0 6304.0,3640.0 6304.0,3640.0 M 6143.0,3906.0 C 6143.0,3906.0 6143.0,3906.0 6143.0,3906.0 M 5796.0,4400.0 C 5796.0,4400.0 5796.0,4400.0 5796.0,4400.0 M 5791.0,4491.0 C 5791.0,4491.0 5791.0,4491.0 5791.0,4491.0 M 5812.0,4563.0 C 5812.0,4563.0 5812.0,4563.0 5812.0,4563.0 M 5815.0,4655.0 C 5815.0,4655.0 5815.0,4655.0 5815.0,4655.0 M 5804.0,4742.0 C 5804.0,4742.0 5804.0,4742.0 5804.0,4742.0 M 5797.0,4809.0 C 5797.0,4809.0 5797.0,4809.0 5797.0,4809.0 M 5763.0,4927.0 C 5763.0,4927.0 5763.0,4927.0 5763.0,4927.0 M 5581.0,5016.0 C 5581.0,5016.0 5581.0,5016.0 5581.0,5016.0 M 5518.0,5064.0 C 5518.0,5064.0 5518.0,5064.0 5518.0,5064.0 M 5505.0,5087.0 C 5505.0,5087.0 5505.0,5087.0 5505.0,5087.0 M 5497.0,5115.0 C 5497.0,5115.0 5497.0,5115.0 5497.0,5115.0 M 5490.0,5090.0 C 5490.0,5090.0 5490.0,5090.0 5490.0,5090.0 M 5481.0,5102.0 C 5481.0,5102.0 5481.0,5102.0 5481.0,5102.0 M 5426.0,5304.0 C 5426.0,5304.0 5426.0,5304.0 5426.0,5304.0 M 5430.0,5275.0 C 5430.0,5275.0 5430.0,5275.0 5430.0,5275.0 M 5440.0,5232.0 C 5440.0,5232.0 5440.0,5232.0 5440.0,5232.0 M 5480.0,5030.0 C 5480.0,5030.0 5480.0,5030.0 5480.0,5030.0 M 5493.0,4983.0 C 5493.0,4983.0 5493.0,4983.0 5493.0,4983.0 M 5499.0,4970.0 C 5499.0,4970.0 5499.0,4970.0 5499.0,4970.0 M 5510.0,4991.0 C 5510.0,4991.0 5510.0,4991.0 5510.0,4991.0 M 5521.0,5004.0 C 5521.0,5004.0 5521.0,5004.0 5521.0,5004.0 M 5528.0,4976.0 C 5528.0,4976.0 5528.0,4976.0 5528.0,4976.0 M 5573.0,4917.0 C 5573.0,4917.0 5573.0,4917.0 5573.0,4917.0 M 5556.0,4951.0 C 5556.0,4951.0 5556.0,4951.0 5556.0,4951.0 M 5549.0,4958.0 C 5549.0,4958.0 5549.0,4958.0 5549.0,4958.0 M 5534.0,4999.0 C 5534.0,4999.0 5534.0,4999.0 5534.0,4999.0 M 5545.0,5026.0 C 5545.0,5026.0 5545.0,5026.0 5545.0,5026.0 M 5565.0,4989.0 C 5565.0,4989.0 5565.0,4989.0 5565.0,4989.0 M 5640.0,4893.0 C 5640.0,4893.0 5640.0,4893.0 5640.0,4893.0 M 5648.0,4908.0 C 5648.0,4908.0 5648.0,4908.0 5648.0,4908.0 M 5647.0,4920.0 C 5647.0,4920.0 5647.0,4920.0 5647.0,4920.0 M 5674.0,4878.0 C 5674.0,4878.0 5674.0,4878.0 5674.0,4878.0 M 5689.0,4888.0 C 5689.0,4888.0 5689.0,4888.0 5689.0,4888.0 M 5705.0,4923.0 C 5705.0,4923.0 5705.0,4923.0 5705.0,4923.0 M 5718.0,4911.0 C 5718.0,4911.0 5718.0,4911.0 5718.0,4911.0 M 5754.0,4893.0 C 5754.0,4893.0 5754.0,4893.0 5754.0,4893.0 M 5748.0,4868.0 C 5748.0,4868.0 5748.0,4868.0 5748.0,4868.0 M 5743.0,4748.0 C 5743.0,4748.0 5743.0,4748.0 5743.0,4748.0 M 5760.0,4735.0 C 5760.0,4735.0 5760.0,4735.0 5760.0,4735.0 M 5775.0,4720.0 C 5775.0,4720.0 5775.0,4720.0 5775.0,4720.0 M 5790.0,4705.0 C 5790.0,4705.0 5790.0,4705.0 5790.0,4705.0 M 5764.0,4701.0 C 5764.0,4701.0 5764.0,4701.0 5764.0,4701.0 M 5749.0,4699.0 C 5749.0,4699.0 5749.0,4699.0 5749.0,4699.0 M 5750.0,4675.0 C 5750.0,4675.0 5750.0,4675.0 5750.0,4675.0 M 5760.0,4570.0 C 5760.0,4570.0 5760.0,4570.0 5760.0,4570.0 M 5747.0,4550.0 C 5747.0,4550.0 5747.0,4550.0 5747.0,4550.0 M 5710.0,4540.0 C 5710.0,4540.0 5710.0,4540.0 5710.0,4540.0 M 5696.0,4550.0 C 5696.0,4550.0 5696.0,4550.0 5696.0,4550.0 M 5670.0,4588.0 C 5670.0,4588.0 5670.0,4588.0 5670.0,4588.0 M 5620.0,4650.0 C 5620.0,4650.0 5620.0,4650.0 5620.0,4650.0 M 5510.0,4865.0 C 5510.0,4865.0 5510.0,4865.0 5510.0,4865.0 M 5487.0,4923.0 C 5487.0,4923.0 5487.0,4923.0 5487.0,4923.0 M 5483.0,4932.0 C 5483.0,4932.0 5483.0,4932.0 5483.0,4932.0 M 5459.0,5010.0 C 5459.0,5010.0 5459.0,5010.0 5459.0,5010.0 M 5430.0,5101.0 C 5430.0,5101.0 5430.0,5101.0 5430.0,5101.0 M 5416.0,5130.0 C 5416.0,5130.0 5416.0,5130.0 5416.0,5130.0 M 5406.0,5191.0 C 5406.0,5191.0 5406.0,5191.0 5406.0,5191.0 M 5412.0,5232.0 C 5412.0,5232.0 5412.0,5232.0 5412.0,5232.0 M 5401.0,5235.0 C 5401.0,5235.0 5401.0,5235.0 5401.0,5235.0 M 5390.0,5200.0 C 5390.0,5200.0 5390.0,5200.0 5390.0,5200.0 M 5382.0,5225.0 C 5382.0,5225.0 5382.0,5225.0 5382.0,5225.0 M 5394.0,5272.0 C 5394.0,5272.0 5394.0,5272.0 5394.0,5272.0 M 5405.0,5434.0 C 5405.0,5434.0 5405.0,5434.0 5405.0,5434.0 M 5425.0,5610.0 C 5425.0,5610.0 5425.0,5610.0 5425.0,5610.0 M 5445.0,5633.0 C 5445.0,5633.0 5445.0,5633.0 5445.0,5633.0 M 5418.0,5616.0 C 5418.0,5616.0 5418.0,5616.0 5418.0,5616.0 M 5375.0,5525.0 C 5375.0,5525.0 5375.0,5525.0 5375.0,5525.0 M 5367.0,5503.0 C 5367.0,5503.0 5367.0,5503.0 5367.0,5503.0 M 5370.0,5485.0 C 5370.0,5485.0 5370.0,5485.0 5370.0,5485.0 M 5380.0,5452.0 C 5380.0,5452.0 5380.0,5452.0 5380.0,5452.0 M 5364.0,5446.0 C 5364.0,5446.0 5364.0,5446.0 5364.0,5446.0 M 5355.0,5435.0 C 5355.0,5435.0 5355.0,5435.0 5355.0,5435.0 M 5356.0,5340.0 C 5356.0,5340.0 5356.0,5340.0 5356.0,5340.0 M 5340.0,5290.0 C 5340.0,5290.0 5340.0,5290.0 5340.0,5290.0 M 5380.0,5122.0 C 5380.0,5122.0 5380.0,5122.0 5380.0,5122.0 M 5390.0,5099.0 C 5390.0,5099.0 5390.0,5099.0 5390.0,5099.0 M 5408.0,5048.0 C 5408.0,5048.0 5408.0,5048.0 5408.0,5048.0 M 5434.0,4988.0 C 5434.0,4988.0 5434.0,4988.0 5434.0,4988.0 M 5450.0,4960.0 C 5450.0,4960.0 5450.0,4960.0 5450.0,4960.0 M 5460.0,4935.0 C 5460.0,4935.0 5460.0,4935.0 5460.0,4935.0 M 5480.0,4870.0 C 5480.0,4870.0 5480.0,4870.0 5480.0,4870.0 M 5500.0,4813.0 C 5500.0,4813.0 5500.0,4813.0 5500.0,4813.0 M 5614.0,4611.0 C 5614.0,4611.0 5614.0,4611.0 5614.0,4611.0 M 5630.0,4585.0 C 5630.0,4585.0 5630.0,4585.0 5630.0,4585.0 M 5722.0,4478.0 C 5722.0,4478.0 5722.0,4478.0 5722.0,4478.0 M 5760.0,4418.0 C 5760.0,4418.0 5760.0,4418.0 5760.0,4418.0 M 5981.0,4059.0 C 5981.0,4059.0 5981.0,4059.0 5981.0,4059.0 M 6106.0,3920.0 C 6106.0,3920.0 6106.0,3920.0 6106.0,3920.0 M 6204.0,3787.0 C 6204.0,3787.0 6204.0,3787.0 6204.0,3787.0 M 6235.0,3690.0 C 6235.0,3690.0 6235.0,3690.0 6235.0,3690.0 M 6210.0,3598.0 C 6210.0,3598.0 6210.0,3598.0 6210.0,3598.0 M 6450.0,2759.0 C 6450.0,2759.0 6450.0,2759.0 6450.0,2759.0 M 6157.0,3376.0 C 6157.0,3376.0 6157.0,3376.0 6157.0,3376.0 M 6183.0,3382.0 C 6183.0,3382.0 6183.0,3382.0 6183.0,3382.0 M 6186.0,3370.0 C 6186.0,3370.0 6186.0,3370.0 6186.0,3370.0 M 6195.0,3364.0 C 6195.0,3364.0 6195.0,3364.0 6195.0,3364.0 M 6200.0,3401.0 C 6200.0,3401.0 6200.0,3401.0 6200.0,3401.0 M 6200.0,3425.0 C 6200.0,3425.0 6200.0,3425.0 6200.0,3425.0 M 6209.0,3423.0 C 6209.0,3423.0 6209.0,3423.0 6209.0,3423.0 M 6233.0,3370.0 C 6233.0,3370.0 6233.0,3370.0 6233.0,3370.0 M 6237.0,3363.0 C 6237.0,3363.0 6237.0,3363.0 6237.0,3363.0 M 6250.0,3343.0 C 6250.0,3343.0 6250.0,3343.0 6250.0,3343.0 M 6270.0,3314.0 C 6270.0,3314.0 6270.0,3314.0 6270.0,3314.0 M 6280.0,3300.0 C 6280.0,3300.0 6280.0,3300.0 6280.0,3300.0 M 6301.0,3276.0 C 6301.0,3276.0 6301.0,3276.0 6301.0,3276.0 M 6365.0,3240.0 C 6365.0,3240.0 6365.0,3240.0 6365.0,3240.0 M 6359.0,3252.0 C 6359.0,3252.0 6359.0,3252.0 6359.0,3252.0 M 6351.0,3267.0 C 6351.0,3267.0 6351.0,3267.0 6351.0,3267.0 M 6452.0,3226.0 C 6452.0,3226.0 6452.0,3226.0 6452.0,3226.0 M 6448.0,3206.0 C 6448.0,3206.0 6448.0,3206.0 6448.0,3206.0 M 6444.0,3202.0 C 6444.0,3202.0 6444.0,3202.0 6444.0,3202.0 M 6431.0,3181.0 C 6431.0,3181.0 6431.0,3181.0 6431.0,3181.0 M 6424.0,3084.0 C 6424.0,3084.0 6424.0,3084.0 6424.0,3084.0 M 6448.0,3049.0 C 6448.0,3049.0 6448.0,3049.0 6448.0,3049.0 M 6462.0,3025.0 C 6462.0,3025.0 6462.0,3025.0 6462.0,3025.0 M 6462.0,3036.0 C 6462.0,3036.0 6462.0,3036.0 6462.0,3036.0 M 6483.0,3063.0 C 6483.0,3063.0 6483.0,3063.0 6483.0,3063.0 M 6533.0,3075.0 C 6533.0,3075.0 6533.0,3075.0 6533.0,3075.0 M 6550.0,3061.0 C 6550.0,3061.0 6550.0,3061.0 6550.0,3061.0 M 6566.0,3008.0 C 6566.0,3008.0 6566.0,3008.0 6566.0,3008.0 M 6587.0,2951.0 C 6587.0,2951.0 6587.0,2951.0 6587.0,2951.0 M 6580.0,2786.0 C 6580.0,2786.0 6580.0,2786.0 6580.0,2786.0 M 6589.0,2753.0 C 6589.0,2753.0 6589.0,2753.0 6589.0,2753.0 M 7325.91,2676.2 C 7325.91,2676.2 7325.91,2676.2 7325.91,2676.2 M 8048.0,3118.0 C 8048.0,3118.0 8048.0,3118.0 8048.0,3118.0 M 7980.0,3360.0 C 7980.0,3360.0 7980.0,3360.0 7980.0,3360.0 M 7939.0,3444.0 C 7939.0,3444.0 7939.0,3444.0 7939.0,3444.0 M 7640.0,3764.0 C 7640.0,3764.0 7640.0,3764.0 7640.0,3764.0 M 7240.0,3937.0 C 7240.0,3937.0 7240.0,3937.0 7240.0,3937.0 M 7116.0,3967.0 C 7116.0,3967.0 7116.0,3967.0 7116.0,3967.0 M 7151.0,3945.0 C 7151.0,3945.0 7151.0,3945.0 7151.0,3945.0 M 7185.0,3930.0 C 7185.0,3930.0 7185.0,3930.0 7185.0,3930.0 M 7168.0,3927.0 C 7168.0,3927.0 7168.0,3927.0 7168.0,3927.0 M 7145.0,3933.0 C 7145.0,3933.0 7145.0,3933.0 7145.0,3933.0 M 7168.0,3911.0 C 7168.0,3911.0 7168.0,3911.0 7168.0,3911.0 M 7190.0,3882.0 C 7190.0,3882.0 7190.0,3882.0 7190.0,3882.0 M 7250.0,3820.0 C 7250.0,3820.0 7250.0,3820.0 7250.0,3820.0 M 7260.0,3840.0 C 7260.0,3840.0 7260.0,3840.0 7260.0,3840.0 M 7244.0,3860.0 C 7244.0,3860.0 7244.0,3860.0 7244.0,3860.0 M 7200.0,3904.0 C 7200.0,3904.0 7200.0,3904.0 7200.0,3904.0 M 7205.0,3920.0 C 7205.0,3920.0 7205.0,3920.0 7205.0,3920.0 M 7395.0,3825.0 C 7395.0,3825.0 7395.0,3825.0 7395.0,3825.0 M 7493.0,3788.0 C 7493.0,3788.0 7493.0,3788.0 7493.0,3788.0 M 7500.0,3781.0 C 7500.0,3781.0 7500.0,3781.0 7500.0,3781.0 M 7528.0,3766.0 C 7528.0,3766.0 7528.0,3766.0 7528.0,3766.0 M 7728.0,3662.0 C 7728.0,3662.0 7728.0,3662.0 7728.0,3662.0 M 7769.0,3620.0 C 7769.0,3620.0 7769.0,3620.0 7769.0,3620.0 M 7778.0,3613.0 C 7778.0,3613.0 7778.0,3613.0 7778.0,3613.0 M 7807.0,3557.0 C 7807.0,3557.0 7807.0,3557.0 7807.0,3557.0 M 7820.0,3538.0 C 7820.0,3538.0 7820.0,3538.0 7820.0,3538.0 M 7850.0,3494.0 C 7850.0,3494.0 7850.0,3494.0 7850.0,3494.0 M 7886.0,3424.0 C 7886.0,3424.0 7886.0,3424.0 7886.0,3424.0 M 7906.0,3383.0 C 7906.0,3383.0 7906.0,3383.0 7906.0,3383.0 M 7920.0,3364.0 C 7920.0,3364.0 7920.0,3364.0 7920.0,3364.0 M 7940.0,3330.0 C 7940.0,3330.0 7940.0,3330.0 7940.0,3330.0 M 7960.0,3305.0 C 7960.0,3305.0 7960.0,3305.0 7960.0,3305.0 M 7969.0,3279.0 C 7969.0,3279.0 7969.0,3279.0 7969.0,3279.0 M 7979.0,3269.0 C 7979.0,3269.0 7979.0,3269.0 7979.0,3269.0 M 7992.0,3195.0 C 7992.0,3195.0 7992.0,3195.0 7992.0,3195.0 M 7057.0,2848.0 C 7057.0,2848.0 7057.0,2848.0 7057.0,2848.0 M 7061.0,2960.0 C 7061.0,2960.0 7061.0,2960.0 7061.0,2960.0 M 7048.0,2923.0 C 7048.0,2923.0 7048.0,2923.0 7048.0,2923.0 M 7044.0,2986.0 C 7044.0,2986.0 7044.0,2986.0 7044.0,2986.0 M 7050.0,3085.0 C 7050.0,3085.0 7050.0,3085.0 7050.0,3085.0 M 7077.0,3141.0 C 7077.0,3141.0 7077.0,3141.0 7077.0,3141.0 M 7065.0,3148.0 C 7065.0,3148.0 7065.0,3148.0 7065.0,3148.0 M 7055.0,3163.0 C 7055.0,3163.0 7055.0,3163.0 7055.0,3163.0 M 7053.0,3196.0 C 7053.0,3196.0 7053.0,3196.0 7053.0,3196.0 M 7043.0,3246.0 C 7043.0,3246.0 7043.0,3246.0 7043.0,3246.0 M 7039.0,3329.0 C 7039.0,3329.0 7039.0,3329.0 7039.0,3329.0 M 7039.0,3395.0 C 7039.0,3395.0 7039.0,3395.0 7039.0,3395.0 M 7055.0,3413.0 C 7055.0,3413.0 7055.0,3413.0 7055.0,3413.0 M 7085.0,3411.0 C 7085.0,3411.0 7085.0,3411.0 7085.0,3411.0 M 7065.0,3450.0 C 7065.0,3450.0 7065.0,3450.0 7065.0,3450.0 M 7073.0,3494.0 C 7073.0,3494.0 7073.0,3494.0 7073.0,3494.0 M 7114.0,3502.0 C 7114.0,3502.0 7114.0,3502.0 7114.0,3502.0 M 7115.0,3480.0 C 7115.0,3480.0 7115.0,3480.0 7115.0,3480.0 M 7100.0,3476.0 C 7100.0,3476.0 7100.0,3476.0 7100.0,3476.0 M 7111.0,3460.0 C 7111.0,3460.0 7111.0,3460.0 7111.0,3460.0 M 7117.0,3415.0 C 7117.0,3415.0 7117.0,3415.0 7117.0,3415.0 M 7136.0,3364.0 C 7136.0,3364.0 7136.0,3364.0 7136.0,3364.0 M 7156.0,3341.0 C 7156.0,3341.0 7156.0,3341.0 7156.0,3341.0 M 7170.0,3349.0 C 7170.0,3349.0 7170.0,3349.0 7170.0,3349.0 M 7089.0,3547.0 C 7089.0,3547.0 7089.0,3547.0 7089.0,3547.0 M 7054.0,3586.0 C 7054.0,3586.0 7054.0,3586.0 7054.0,3586.0 M 7024.0,3647.0 C 7024.0,3647.0 7024.0,3647.0 7024.0,3647.0 M 6983.0,3764.0 C 6983.0,3764.0 6983.0,3764.0 6983.0,3764.0 M 6979.0,3816.0 C 6979.0,3816.0 6979.0,3816.0 6979.0,3816.0 M 6963.0,3890.0 C 6963.0,3890.0 6963.0,3890.0 6963.0,3890.0 M 6940.0,3943.0 C 6940.0,3943.0 6940.0,3943.0 6940.0,3943.0 M 6930.0,3930.0 C 6930.0,3930.0 6930.0,3930.0 6930.0,3930.0 M 6897.0,4007.0 C 6897.0,4007.0 6897.0,4007.0 6897.0,4007.0 M 6893.0,4020.0 C 6893.0,4020.0 6893.0,4020.0 6893.0,4020.0 M 6860.0,4107.0 C 6860.0,4107.0 6860.0,4107.0 6860.0,4107.0 M 6860.0,4143.0 C 6860.0,4143.0 6860.0,4143.0 6860.0,4143.0 M 6883.0,4119.0 C 6883.0,4119.0 6883.0,4119.0 6883.0,4119.0 M 6903.0,4088.0 C 6903.0,4088.0 6903.0,4088.0 6903.0,4088.0 M 6914.0,4086.0 C 6914.0,4086.0 6914.0,4086.0 6914.0,4086.0 M 6930.0,4071.0 C 6930.0,4071.0 6930.0,4071.0 6930.0,4071.0 M 6946.0,4057.0 C 6946.0,4057.0 6946.0,4057.0 6946.0,4057.0 M 6958.0,4049.0 C 6958.0,4049.0 6958.0,4049.0 6958.0,4049.0 M 6982.0,4017.0 C 6982.0,4017.0 6982.0,4017.0 6982.0,4017.0 M 7005.0,3990.0 C 7005.0,3990.0 7005.0,3990.0 7005.0,3990.0 M 7008.0,3980.0 C 7008.0,3980.0 7008.0,3980.0 7008.0,3980.0 M 7071.0,3913.0 C 7071.0,3913.0 7071.0,3913.0 7071.0,3913.0 M 7163.0,3803.0 C 7163.0,3803.0 7163.0,3803.0 7163.0,3803.0 M 7200.0,3696.0 C 7200.0,3696.0 7200.0,3696.0 7200.0,3696.0 M 7218.0,3627.0 C 7218.0,3627.0 7218.0,3627.0 7218.0,3627.0 M 7221.0,3748.0 C 7221.0,3748.0 7221.0,3748.0 7221.0,3748.0 M 7214.0,3788.0 C 7214.0,3788.0 7214.0,3788.0 7214.0,3788.0 M 7175.0,3826.0 C 7175.0,3826.0 7175.0,3826.0 7175.0,3826.0 M 7152.0,3832.0 C 7152.0,3832.0 7152.0,3832.0 7152.0,3832.0 M 7133.0,3888.0 C 7133.0,3888.0 7133.0,3888.0 7133.0,3888.0 M 7104.0,3958.0 C 7104.0,3958.0 7104.0,3958.0 7104.0,3958.0 M 6971.0,4110.0 C 6971.0,4110.0 6971.0,4110.0 6971.0,4110.0 M 6835.0,4260.0 C 6835.0,4260.0 6835.0,4260.0 6835.0,4260.0 M 6818.0,4291.0 C 6818.0,4291.0 6818.0,4291.0 6818.0,4291.0 M 6884.0,4439.0 C 6884.0,4439.0 6884.0,4439.0 6884.0,4439.0 M 7000.0,4615.0 C 7000.0,4615.0 7000.0,4615.0 7000.0,4615.0 M 7068.0,4738.0 C 7068.0,4738.0 7068.0,4738.0 7068.0,4738.0 M 7230.0,5198.0 C 7230.0,5198.0 7230.0,5198.0 7230.0,5198.0 M 7135.0,5540.0 C 7135.0,5540.0 7135.0,5540.0 7135.0,5540.0 M 7140.0,5590.0 C 7140.0,5590.0 7140.0,5590.0 7140.0,5590.0 M 7177.0,5595.0 C 7177.0,5595.0 7177.0,5595.0 7177.0,5595.0 M 7204.0,5583.0 C 7204.0,5583.0 7204.0,5583.0 7204.0,5583.0 M 7188.0,5657.0 C 7188.0,5657.0 7188.0,5657.0 7188.0,5657.0 M 7120.0,5765.0 C 7120.0,5765.0 7120.0,5765.0 7120.0,5765.0 M 7094.0,5842.0 C 7094.0,5842.0 7094.0,5842.0 7094.0,5842.0 M 7068.0,6103.0 C 7068.0,6103.0 7068.0,6103.0 7068.0,6103.0 M 7073.0,6307.0 C 7073.0,6307.0 7073.0,6307.0 7073.0,6307.0 M 7011.0,6403.0 C 7011.0,6403.0 7011.0,6403.0 7011.0,6403.0 M 6682.0,6539.0 C 6682.0,6539.0 6682.0,6539.0 6682.0,6539.0 M 6572.0,6538.0 C 6600.2,6533.0 6684.8,6518.0 6713.0,6513.0 M 6688.0,6513.0 C 6688.0,6513.0 6688.0,6513.0 6688.0,6513.0 M 6700.0,6518.0 C 6700.0,6518.0 6700.0,6518.0 6700.0,6518.0 M 6713.0,6513.0 C 6669.4,6508.4 6538.6,6494.6 6495.0,6490.0 M 6422.0,6481.0 C 6422.0,6481.0 6422.0,6481.0 6422.0,6481.0 M 6380.0,6490.0 C 6380.0,6490.0 6380.0,6490.0 6380.0,6490.0 M 6495.0,6490.0 C 6554.0,6490.0 6731.0,6490.0 6790.0,6490.0 M 6781.0,6480.0 C 6781.0,6480.0 6781.0,6480.0 6781.0,6480.0 M 6765.0,6490.0 C 6765.0,6490.0 6765.0,6490.0 6765.0,6490.0 M 6774.0,6500.0 C 6774.0,6500.0 6774.0,6500.0 6774.0,6500.0 M 6790.0,6490.0 C 6807.4,6482.6 6859.6,6460.4 6877.0,6453.0 M 6863.0,6453.0 C 6863.0,6453.0 6863.0,6453.0 6863.0,6453.0 M 6870.0,6460.0 C 6870.0,6460.0 6870.0,6460.0 6870.0,6460.0 M 6877.0,6453.0 C 6892.6,6438.8 6939.4,6396.2 6955.0,6382.0 M 7025.0,6300.0 C 7025.0,6300.0 7025.0,6300.0 7025.0,6300.0 M 7032.0,6280.0 C 7032.0,6280.0 7032.0,6280.0 7032.0,6280.0 M 7015.0,6255.0 C 7015.0,6255.0 7015.0,6255.0 7015.0,6255.0 M 6983.0,6248.0 C 6983.0,6248.0 6983.0,6248.0 6983.0,6248.0 M 7000.0,6288.0 C 7000.0,6288.0 7000.0,6288.0 7000.0,6288.0 M 7013.0,6310.0 C 7013.0,6310.0 7013.0,6310.0 7013.0,6310.0 M 7009.0,6320.0 C 7009.0,6320.0 7009.0,6320.0 7009.0,6320.0 M 6921.0,6303.0 C 6921.0,6303.0 6921.0,6303.0 6921.0,6303.0 M 6982.0,6220.0 C 6982.0,6220.0 6982.0,6220.0 6982.0,6220.0 M 7012.0,6231.0 C 7012.0,6231.0 7012.0,6231.0 7012.0,6231.0 M 7037.0,6236.0 C 7037.0,6236.0 7037.0,6236.0 7037.0,6236.0 M 7017.0,6221.0 C 7017.0,6221.0 7017.0,6221.0 7017.0,6221.0 M 6985.0,6201.0 C 6985.0,6201.0 6985.0,6201.0 6985.0,6201.0 M 7007.0,6201.0 C 7007.0,6201.0 7007.0,6201.0 7007.0,6201.0 M 7019.0,6195.0 C 7019.0,6195.0 7019.0,6195.0 7019.0,6195.0 M 7016.0,6151.0 C 7016.0,6151.0 7016.0,6151.0 7016.0,6151.0 M 7021.0,6040.0 C 7021.0,6040.0 7021.0,6040.0 7021.0,6040.0 M 7014.0,6015.0 C 7014.0,6015.0 7014.0,6015.0 7014.0,6015.0 M 7006.0,6038.0 C 7006.0,6038.0 7006.0,6038.0 7006.0,6038.0 M 6990.0,6060.0 C 6990.0,6060.0 6990.0,6060.0 6990.0,6060.0 M 6961.0,6096.0 C 6961.0,6096.0 6961.0,6096.0 6961.0,6096.0 M 6955.0,6127.0 C 6955.0,6127.0 6955.0,6127.0 6955.0,6127.0 M 6970.0,6140.0 C 6970.0,6140.0 6970.0,6140.0 6970.0,6140.0 M 6948.0,6160.0 C 6948.0,6160.0 6948.0,6160.0 6948.0,6160.0 M 6938.0,6169.0 C 6938.0,6169.0 6938.0,6169.0 6938.0,6169.0 M 6932.0,6182.0 C 6932.0,6182.0 6932.0,6182.0 6932.0,6182.0 M 6908.0,6214.0 C 6908.0,6214.0 6908.0,6214.0 6908.0,6214.0 M 6916.0,6236.0 C 6916.0,6236.0 6916.0,6236.0 6916.0,6236.0 M 6930.0,6260.0 C 6930.0,6260.0 6930.0,6260.0 6930.0,6260.0 M 6905.0,6257.0 C 6905.0,6257.0 6905.0,6257.0 6905.0,6257.0 M 6879.0,6245.0 C 6879.0,6245.0 6879.0,6245.0 6879.0,6245.0 M 6882.0,6222.0 C 6882.0,6222.0 6882.0,6222.0 6882.0,6222.0 M 6883.0,6210.0 C 6883.0,6210.0 6883.0,6210.0 6883.0,6210.0 M 6859.0,6226.0 C 6859.0,6226.0 6859.0,6226.0 6859.0,6226.0 M 6874.0,6265.0 C 6874.0,6265.0 6874.0,6265.0 6874.0,6265.0 M 6902.0,6289.0 C 6902.0,6289.0 6902.0,6289.0 6902.0,6289.0 M 6864.0,6284.0 C 6864.0,6284.0 6864.0,6284.0 6864.0,6284.0 M 6808.0,6275.0 C 6808.0,6275.0 6808.0,6275.0 6808.0,6275.0 M 6819.0,6311.0 C 6819.0,6311.0 6819.0,6311.0 6819.0,6311.0 M 6870.0,6312.0 C 6870.0,6312.0 6870.0,6312.0 6870.0,6312.0 M 6894.0,6325.0 C 6894.0,6325.0 6894.0,6325.0 6894.0,6325.0 M 6887.0,6340.0 C 6887.0,6340.0 6887.0,6340.0 6887.0,6340.0 M 6906.0,6329.0 C 6906.0,6329.0 6906.0,6329.0 6906.0,6329.0 M 6921.0,6331.0 C 6921.0,6331.0 6921.0,6331.0 6921.0,6331.0 M 6930.0,6333.0 C 6930.0,6333.0 6930.0,6333.0 6930.0,6333.0 M 6950.0,6327.0 C 6950.0,6327.0 6950.0,6327.0 6950.0,6327.0 M 6970.0,6340.0 C 6970.0,6340.0 6970.0,6340.0 6970.0,6340.0 M 6928.0,6364.0 C 6928.0,6364.0 6928.0,6364.0 6928.0,6364.0 M 6922.0,6365.0 C 6922.0,6365.0 6922.0,6365.0 6922.0,6365.0 M 6896.0,6400.0 C 6896.0,6400.0 6896.0,6400.0 6896.0,6400.0 M 6900.0,6389.0 C 6900.0,6389.0 6900.0,6389.0 6900.0,6389.0 M 6855.0,6386.0 C 6855.0,6386.0 6855.0,6386.0 6855.0,6386.0 M 6693.0,6394.0 C 6693.0,6394.0 6693.0,6394.0 6693.0,6394.0 M 6597.0,6403.0 C 6597.0,6403.0 6597.0,6403.0 6597.0,6403.0 M 6620.0,6410.0 C 6620.0,6410.0 6620.0,6410.0 6620.0,6410.0 M 6644.0,6418.0 C 6644.0,6418.0 6644.0,6418.0 6644.0,6418.0 M 6777.0,6422.0 C 6777.0,6422.0 6777.0,6422.0 6777.0,6422.0 M 6905.0,6418.0 C 6905.0,6418.0 6905.0,6418.0 6905.0,6418.0 M 6955.0,6382.0 C 6950.0,6390.6 6935.0,6416.4 6930.0,6425.0 M 6925.0,6420.0 C 6925.0,6420.0 6925.0,6420.0 6925.0,6420.0 M 6920.0,6425.0 C 6920.0,6425.0 6920.0,6425.0 6920.0,6425.0 M 6925.0,6430.0 C 6925.0,6430.0 6925.0,6430.0 6925.0,6430.0 M 6930.0,6425.0 C 6760.0,6419.0 6250.0,6401.0 6080.0,6395.0 M 6075.0,6390.0 C 6075.0,6390.0 6075.0,6390.0 6075.0,6390.0 M 6070.0,6395.0 C 6070.0,6395.0 6070.0,6395.0 6070.0,6395.0 M 6075.0,6400.0 C 6075.0,6400.0 6075.0,6400.0 6075.0,6400.0 M 6080.0,6395.0 C 6234.0,6389.0 6696.0,6371.0 6850.0,6365.0 M 6845.0,6360.0 C 6845.0,6360.0 6845.0,6360.0 6845.0,6360.0 M 6840.0,6365.0 C 6840.0,6365.0 6840.0,6365.0 6840.0,6365.0 M 6845.0,6370.0 C 6845.0,6370.0 6845.0,6370.0 6845.0,6370.0 M 6850.0,6365.0 C 6854.0,6365.0 6866.0,6365.0 6870.0,6365.0 M 6865.0,6360.0 C 6865.0,6360.0 6865.0,6360.0 6865.0,6360.0 M 6860.0,6365.0 C 6860.0,6365.0 6860.0,6365.0 6860.0,6365.0 M 6865.0,6370.0 C 6865.0,6370.0 6865.0,6370.0 6865.0,6370.0 M 6870.0,6365.0 C 6874.0,6365.0 6886.0,6365.0 6890.0,6365.0 M 6885.0,6360.0 C 6885.0,6360.0 6885.0,6360.0 6885.0,6360.0 M 6880.0,6365.0 C 6880.0,6365.0 6880.0,6365.0 6880.0,6365.0 M 6885.0,6370.0 C 6885.0,6370.0 6885.0,6370.0 6885.0,6370.0 M 6890.0,6365.0 C 6874.0,6358.0 6826.0,6337.0 6810.0,6330.0 M 6800.0,6320.0 C 6800.0,6320.0 6800.0,6320.0 6800.0,6320.0 M 6790.0,6330.0 C 6790.0,6330.0 6790.0,6330.0 6790.0,6330.0 M 6800.0,6340.0 C 6800.0,6340.0 6800.0,6340.0 6800.0,6340.0 M 6810.0,6330.0 C 6822.0,6331.0 6858.0,6334.0 6870.0,6335.0 M 6865.0,6330.0 C 6865.0,6330.0 6865.0,6330.0 6865.0,6330.0 M 6860.0,6335.0 C 6860.0,6335.0 6860.0,6335.0 6860.0,6335.0 M 6865.0,6340.0 C 6865.0,6340.0 6865.0,6340.0 6865.0,6340.0 M 6870.0,6335.0 C 6901.4,6302.6 6995.6,6205.4 7027.0,6173.0 M 7013.0,6173.0 C 7013.0,6173.0 7013.0,6173.0 7013.0,6173.0 M 7020.0,6180.0 C 7020.0,6180.0 7020.0,6180.0 7020.0,6180.0 M 7027.0,6173.0 C 6699.0,5997.0 5715.0,5469.0 5387.0,5293.0 M 5382.0,5310.0 C 5382.0,5310.0 5382.0,5310.0 5382.0,5310.0 M 5387.0,5328.0 C 5387.0,5328.0 5387.0,5328.0 5387.0,5328.0 M 5387.0,5293.0 C 5432.6,5225.0 5569.4,5021.0 5615.0,4953.0 M 5633.0,4925.0 C 5633.0,4925.0 5633.0,4925.0 5633.0,4925.0 M 5612.0,4944.0 C 5612.0,4944.0 5612.0,4944.0 5612.0,4944.0 M 5590.0,4972.0 C 5590.0,4972.0 5590.0,4972.0 5590.0,4972.0 M 5615.0,4953.0 C 5606.0,4947.4 5579.0,4930.6 5570.0,4925.0 M 5565.0,4920.0 C 5565.0,4920.0 5565.0,4920.0 5565.0,4920.0 M 5560.0,4925.0 C 5560.0,4925.0 5560.0,4925.0 5560.0,4925.0 M 5565.0,4930.0 C 5565.0,4930.0 5565.0,4930.0 5565.0,4930.0 M 5570.0,4925.0 C 5612.0,4869.0 5738.0,4701.0 5780.0,4645.0 M 5775.0,4640.0 C 5775.0,4640.0 5775.0,4640.0 5775.0,4640.0 M 5770.0,4645.0 C 5770.0,4645.0 5770.0,4645.0 5770.0,4645.0 M 5775.0,4650.0 C 5775.0,4650.0 5775.0,4650.0 5775.0,4650.0 M 5780.0,4645.0 C 5780.0,4641.0 5780.0,4629.0 5780.0,4625.0 M 5775.0,4620.0 C 5775.0,4620.0 5775.0,4620.0 5775.0,4620.0 M 5770.0,4625.0 C 5770.0,4625.0 5770.0,4625.0 5770.0,4625.0 M 5775.0,4630.0 C 5775.0,4630.0 5775.0,4630.0 5775.0,4630.0 M 5780.0,4625.0 C 6014.0,4483.0 6716.0,4057.0 6950.0,3915.0 M 6945.0,3910.0 C 6945.0,3910.0 6945.0,3910.0 6945.0,3910.0 M 6940.0,3915.0 C 6940.0,3915.0 6940.0,3915.0 6940.0,3915.0 M 6945.0,3920.0 C 6945.0,3920.0 6945.0,3920.0 6945.0,3920.0 M 6950.0,3915.0 C 6818.0,3861.0 6422.0,3699.0 6290.0,3645.0 M 6285.0,3640.0 C 6285.0,3640.0 6285.0,3640.0 6285.0,3640.0 M 6280.0,3645.0 C 6280.0,3645.0 6280.0,3645.0 6280.0,3645.0 M 6285.0,3650.0 C 6285.0,3650.0 6285.0,3650.0 6285.0,3650.0 M 6290.0,3645.0 C 6290.0,3633.0 6290.0,3597.0 6290.0,3585.0 M 6295.0,3504.0 C 6295.0,3504.0 6295.0,3504.0 6295.0,3504.0 M 6300.0,3455.0 C 6300.0,3455.0 6300.0,3455.0 6300.0,3455.0 M 6284.0,3505.0 C 6284.0,3505.0 6284.0,3505.0 6284.0,3505.0 M 6275.0,3617.0 C 6275.0,3617.0 6275.0,3617.0 6275.0,3617.0 M 6290.0,3585.0 C 6438.6,3577.0 6884.4,3553.0 7033.0,3545.0 M 7023.0,3534.0 C 7023.0,3534.0 7023.0,3534.0 7023.0,3534.0 M 7025.0,3549.0 C 7025.0,3549.0 7025.0,3549.0 7025.0,3549.0 M 7033.0,3545.0 C 6885.2,3520.2 6441.8,3445.8 6294.0,3421.0 M 6367.0,3335.0 C 6367.0,3335.0 6367.0,3335.0 6367.0,3335.0 M 6392.0,3312.0 C 6392.0,3312.0 6392.0,3312.0 6392.0,3312.0 M 6247.0,3483.0 C 6247.0,3483.0 6247.0,3483.0 6247.0,3483.0 M 6294.0,3421.0 C 6278.6,3425.4 6232.4,3438.6 6217.0,3443.0 M 6203.0,3443.0 C 6203.0,3443.0 6203.0,3443.0 6203.0,3443.0 M 6210.0,3450.0 C 6210.0,3450.0 6210.0,3450.0 6210.0,3450.0 M 6217.0,3443.0 C 6407.6,3439.4 6979.4,3428.6 7170.0,3425.0 M 7165.0,3420.0 C 7165.0,3420.0 7165.0,3420.0 7165.0,3420.0 M 7160.0,3425.0 C 7160.0,3425.0 7160.0,3425.0 7160.0,3425.0 M 7165.0,3430.0 C 7165.0,3430.0 7165.0,3430.0 7165.0,3430.0 M 7170.0,3425.0 C 7170.0,3418.2 7170.0,3397.8 7170.0,3391.0 M 7154.0,3376.0 C 7154.0,3376.0 7154.0,3376.0 7154.0,3376.0 M 7150.0,3385.0 C 7150.0,3385.0 7150.0,3385.0 7150.0,3385.0 M 7170.0,3391.0 C 7005.4,3371.4 6511.6,3312.6 6347.0,3293.0 M 6333.0,3293.0 C 6333.0,3293.0 6333.0,3293.0 6333.0,3293.0 M 6340.0,3300.0 C 6340.0,3300.0 6340.0,3300.0 6340.0,3300.0 M 6347.0,3293.0 C 6677.6,3275.4 7669.4,3222.6 8000.0,3205.0 M 7995.0,3200.0 C 7995.0,3200.0 7995.0,3200.0 7995.0,3200.0 M 7990.0,3205.0 C 7990.0,3205.0 7990.0,3205.0 7990.0,3205.0 M 7995.0,3210.0 C 7995.0,3210.0 7995.0,3210.0 7995.0,3210.0 M 8000.0,3205.0 C 7694.0,3201.0 6776.0,3189.0 6470.0,3185.0 M 6465.0,3180.0 C 6465.0,3180.0 6465.0,3180.0 6465.0,3180.0 M 6460.0,3185.0 C 6460.0,3185.0 6460.0,3185.0 6460.0,3185.0 M 6465.0,3190.0 C 6465.0,3190.0 6465.0,3190.0 6465.0,3190.0 M 6470.0,3185.0 C 6476.8,3178.8 6497.2,3160.2 6504.0,3154.0 M 6479.0,3090.0 C 6479.0,3090.0 6479.0,3090.0 6479.0,3090.0 M 6435.0,3150.0 C 6435.0,3150.0 6435.0,3150.0 6435.0,3150.0 M 6504.0,3154.0 C 6521.2,3078.2 6572.8,2850.8 6590.0,2775.0 M 6585.0,2770.0 C 6585.0,2770.0 6585.0,2770.0 6585.0,2770.0 M 6580.0,2775.0 C 6580.0,2775.0 6580.0,2775.0 6580.0,2775.0 M 6585.0,2780.0 C 6585.0,2780.0 6585.0,2780.0 6585.0,2780.0 M 6590.0,2775.0 C 6640.6,3478.6 6792.4,5589.4 6843.0,6293.0 M 6857.0,6293.0 C 6857.0,6293.0 6857.0,6293.0 6857.0,6293.0 M 6850.0,6300.0 C 6850.0,6300.0 6850.0,6300.0 6850.0,6300.0 M 6843.0,6293.0 C 6860.0,6277.0 6911.0,6229.0 6928.0,6213.0 M 6942.0,6194.0 C 6942.0,6194.0 6942.0,6194.0 6942.0,6194.0 M 6958.0,6209.0 C 6958.0,6209.0 6958.0,6209.0 6958.0,6209.0 M 6928.0,6213.0 C 6934.4,6205.4 6953.6,6182.6 6960.0,6175.0 M 6965.0,6170.0 C 6965.0,6170.0 6965.0,6170.0 6965.0,6170.0 M 6970.0,6175.0 C 6970.0,6175.0 6970.0,6175.0 6970.0,6175.0 M 6965.0,6180.0 C 6965.0,6180.0 6965.0,6180.0 6965.0,6180.0 M 6960.0,6175.0 C 6822.0,5659.0 6408.0,4111.0 6270.0,3595.0 M 6275.0,3590.0 C 6275.0,3590.0 6275.0,3590.0 6275.0,3590.0 M 6280.0,3595.0 C 6280.0,3595.0 6280.0,3595.0 6280.0,3595.0 M 6275.0,3600.0 C 6275.0,3600.0 6275.0,3600.0 6275.0,3600.0 M 6270.0,3595.0 C 6307.4,3504.8 6419.6,3234.2 6457.0,3144.0 M 6480.0,3110.0 C 6480.0,3110.0 6480.0,3110.0 6480.0,3110.0 M 6493.0,3130.0 C 6493.0,3130.0 6493.0,3130.0 6493.0,3130.0 M 6457.0,3144.0 C 6480.2,3807.8 6549.8,5799.2 6573.0,6463.0 M 6550.0,6449.0 C 6550.0,6449.0 6550.0,6449.0 6550.0,6449.0 M 6590.0,6455.0 C 6590.0,6455.0 6590.0,6455.0 6590.0,6455.0 M 6573.0,6463.0 C 6508.4,6443.4 6314.6,6384.6 6250.0,6365.0 M 6236.0,6350.0 C 6236.0,6350.0 6236.0,6350.0 6236.0,6350.0 M 6266.0,6365.0 C 6266.0,6365.0 6266.0,6365.0 6266.0,6365.0 M 6250.0,6365.0 C 6276.8,6363.6 6357.2,6359.4 6384.0,6358.0 M 6388.0,6354.0 C 6388.0,6354.0 6388.0,6354.0 6388.0,6354.0 M 6396.0,6370.0 C 6396.0,6370.0 6396.0,6370.0 6396.0,6370.0 M 6384.0,6358.0 C 6369.2,6355.4 6324.8,6347.6 6310.0,6345.0 M 6315.0,6340.0 C 6315.0,6340.0 6315.0,6340.0 6315.0,6340.0 M 6320.0,6345.0 C 6320.0,6345.0 6320.0,6345.0 6320.0,6345.0 M 6315.0,6350.0 C 6315.0,6350.0 6315.0,6350.0 6315.0,6350.0 M 6310.0,6345.0 C 6322.6,6340.2 6360.4,6325.8 6373.0,6321.0 M 6325.0,6281.0 C 6325.0,6281.0 6325.0,6281.0 6325.0,6281.0 M 6310.0,6273.0 C 6310.0,6273.0 6310.0,6273.0 6310.0,6273.0 M 6296.0,6269.0 C 6296.0,6269.0 6296.0,6269.0 6296.0,6269.0 M 6288.0,6260.0 C 6288.0,6260.0 6288.0,6260.0 6288.0,6260.0 M 6247.0,6245.0 C 6247.0,6245.0 6247.0,6245.0 6247.0,6245.0 M 6227.0,6243.0 C 6227.0,6243.0 6227.0,6243.0 6227.0,6243.0 M 6207.0,6237.0 C 6207.0,6237.0 6207.0,6237.0 6207.0,6237.0 M 6192.0,6248.0 C 6192.0,6248.0 6192.0,6248.0 6192.0,6248.0 M 6192.0,6260.0 C 6192.0,6260.0 6192.0,6260.0 6192.0,6260.0 M 6173.0,6247.0 C 6173.0,6247.0 6173.0,6247.0 6173.0,6247.0 M 6138.0,6223.0 C 6138.0,6223.0 6138.0,6223.0 6138.0,6223.0 M 6111.0,6198.0 C 6111.0,6198.0 6111.0,6198.0 6111.0,6198.0 M 6116.0,6197.0 C 6116.0,6197.0 6116.0,6197.0 6116.0,6197.0 M 6156.0,6203.0 C 6156.0,6203.0 6156.0,6203.0 6156.0,6203.0 M 6207.0,6211.0 C 6207.0,6211.0 6207.0,6211.0 6207.0,6211.0 M 6216.0,6211.0 C 6216.0,6211.0 6216.0,6211.0 6216.0,6211.0 M 6231.0,6205.0 C 6231.0,6205.0 6231.0,6205.0 6231.0,6205.0 M 6258.0,6221.0 C 6258.0,6221.0 6258.0,6221.0 6258.0,6221.0 M 6272.0,6230.0 C 6272.0,6230.0 6272.0,6230.0 6272.0,6230.0 M 6326.0,6265.0 C 6326.0,6265.0 6326.0,6265.0 6326.0,6265.0 M 6377.0,6300.0 C 6377.0,6300.0 6377.0,6300.0 6377.0,6300.0 M 6415.0,6325.0 C 6415.0,6325.0 6415.0,6325.0 6415.0,6325.0 M 6373.0,6321.0 C 6347.8,6320.6 6272.2,6319.4 6247.0,6319.0 M 6213.0,6294.0 C 6213.0,6294.0 6213.0,6294.0 6213.0,6294.0 M 6300.0,6335.0 C 6300.0,6335.0 6300.0,6335.0 6300.0,6335.0 M 6247.0,6319.0 C 6285.4,6316.8 6400.6,6310.2 6439.0,6308.0 M 6390.0,6278.0 C 6390.0,6278.0 6390.0,6278.0 6390.0,6278.0 M 6303.0,6204.0 C 6303.0,6204.0 6303.0,6204.0 6303.0,6204.0 M 6299.0,6176.0 C 6299.0,6176.0 6299.0,6176.0 6299.0,6176.0 M 6313.0,6183.0 C 6313.0,6183.0 6313.0,6183.0 6313.0,6183.0 M 6352.0,6210.0 C 6352.0,6210.0 6352.0,6210.0 6352.0,6210.0 M 6410.0,6268.0 C 6410.0,6268.0 6410.0,6268.0 6410.0,6268.0 M 6424.0,6274.0 C 6424.0,6274.0 6424.0,6274.0 6424.0,6274.0 M 6450.0,6290.0 C 6450.0,6290.0 6450.0,6290.0 6450.0,6290.0 M 6439.0,6308.0 C 6488.2,6306.4 6635.8,6301.6 6685.0,6300.0 M 6694.0,6296.0 C 6694.0,6296.0 6694.0,6296.0 6694.0,6296.0 M 6701.0,6310.0 C 6701.0,6310.0 6701.0,6310.0 6701.0,6310.0 M 6685.0,6300.0 C 6531.6,6292.6 6071.4,6270.4 5918.0,6263.0 M 5884.0,6236.0 C 5884.0,6236.0 5884.0,6236.0 5884.0,6236.0 M 5875.0,6210.0 C 5875.0,6210.0 5875.0,6210.0 5875.0,6210.0 M 5914.0,6234.0 C 5914.0,6234.0 5914.0,6234.0 5914.0,6234.0 M 5960.0,6287.0 C 5960.0,6287.0 5960.0,6287.0 5960.0,6287.0 M 5918.0,6263.0 C 5972.4,6267.4 6135.6,6280.6 6190.0,6285.0 M 6195.0,6280.0 C 6195.0,6280.0 6195.0,6280.0 6195.0,6280.0 M 6200.0,6285.0 C 6200.0,6285.0 6200.0,6285.0 6200.0,6285.0 M 6195.0,6290.0 C 6195.0,6290.0 6195.0,6290.0 6195.0,6290.0 M 6190.0,6285.0 C 6182.8,6281.6 6161.2,6271.4 6154.0,6268.0 M 6158.0,6264.0 C 6158.0,6264.0 6158.0,6264.0 6158.0,6264.0 M 6170.0,6276.0 C 6170.0,6276.0 6170.0,6276.0 6170.0,6276.0 M 6154.0,6268.0 C 6145.2,6265.4 6118.8,6257.6 6110.0,6255.0 M 6115.0,6250.0 C 6115.0,6250.0 6115.0,6250.0 6115.0,6250.0 M 6120.0,6255.0 C 6120.0,6255.0 6120.0,6255.0 6120.0,6255.0 M 6115.0,6260.0 C 6115.0,6260.0 6115.0,6260.0 6115.0,6260.0 M 6110.0,6255.0 C 6114.0,6255.0 6126.0,6255.0 6130.0,6255.0 M 6135.0,6250.0 C 6135.0,6250.0 6135.0,6250.0 6135.0,6250.0 M 6140.0,6255.0 C 6140.0,6255.0 6140.0,6255.0 6140.0,6255.0 M 6135.0,6260.0 C 6135.0,6260.0 6135.0,6260.0 6135.0,6260.0 M 6130.0,6255.0 C 6120.0,6253.0 6090.0,6247.0 6080.0,6245.0 M 6085.0,6240.0 C 6085.0,6240.0 6085.0,6240.0 6085.0,6240.0 M 6090.0,6245.0 C 6090.0,6245.0 6090.0,6245.0 6090.0,6245.0 M 6085.0,6250.0 C 6085.0,6250.0 6085.0,6250.0 6085.0,6250.0 M 6080.0,6245.0 C 6074.0,6242.2 6056.0,6233.8 6050.0,6231.0 M 6038.0,6226.0 C 6038.0,6226.0 6038.0,6226.0 6038.0,6226.0 M 6034.0,6222.0 C 6034.0,6222.0 6034.0,6222.0 6034.0,6222.0 M 6032.0,6210.0 C 6032.0,6210.0 6032.0,6210.0 6032.0,6210.0 M 6016.0,6193.0 C 6016.0,6193.0 6016.0,6193.0 6016.0,6193.0 M 6036.0,6202.0 C 6036.0,6202.0 6036.0,6202.0 6036.0,6202.0 M 6057.0,6236.0 C 6057.0,6236.0 6057.0,6236.0 6057.0,6236.0 M 6050.0,6231.0 C 6151.0,6226.8 6454.0,6214.2 6555.0,6210.0 M 6559.0,6200.0 C 6559.0,6200.0 6559.0,6200.0 6559.0,6200.0 M 6570.0,6210.0 C 6570.0,6210.0 6570.0,6210.0 6570.0,6210.0 M 6566.0,6220.0 C 6566.0,6220.0 6566.0,6220.0 6566.0,6220.0 M 6555.0,6210.0 C 6500.0,6207.0 6335.0,6198.0 6280.0,6195.0 M 6285.0,6190.0 C 6285.0,6190.0 6285.0,6190.0 6285.0,6190.0 M 6290.0,6195.0 C 6290.0,6195.0 6290.0,6195.0 6290.0,6195.0 M 6285.0,6200.0 C 6285.0,6200.0 6285.0,6200.0 6285.0,6200.0 M 6280.0,6195.0 C 6330.0,6195.0 6480.0,6195.0 6530.0,6195.0 M 6535.0,6190.0 C 6535.0,6190.0 6535.0,6190.0 6535.0,6190.0 M 6540.0,6195.0 C 6540.0,6195.0 6540.0,6195.0 6540.0,6195.0 M 6535.0,6200.0 C 6535.0,6200.0 6535.0,6200.0 6535.0,6200.0 M 6530.0,6195.0 C 6372.4,6191.6 5899.6,6181.4 5742.0,6178.0 M 5730.0,6155.0 C 5730.0,6155.0 5730.0,6155.0 5730.0,6155.0 M 5710.0,6125.0 C 5710.0,6125.0 5710.0,6125.0 5710.0,6125.0 M 5695.0,6102.0 C 5695.0,6102.0 5695.0,6102.0 5695.0,6102.0 M 5625.0,5985.0 C 5625.0,5985.0 5625.0,5985.0 5625.0,5985.0 M 5568.0,5905.0 C 5568.0,5905.0 5568.0,5905.0 5568.0,5905.0 M 5548.0,5880.0 C 5548.0,5880.0 5548.0,5880.0 5548.0,5880.0 M 5540.0,5869.0 C 5540.0,5869.0 5540.0,5869.0 5540.0,5869.0 M 5555.0,5870.0 C 5555.0,5870.0 5555.0,5870.0 5555.0,5870.0 M 5576.0,5877.0 C 5576.0,5877.0 5576.0,5877.0 5576.0,5877.0 M 5526.0,5816.0 C 5526.0,5816.0 5526.0,5816.0 5526.0,5816.0 M 5443.0,5693.0 C 5443.0,5693.0 5443.0,5693.0 5443.0,5693.0 M 5562.0,5838.0 C 5562.0,5838.0 5562.0,5838.0 5562.0,5838.0 M 5583.0,5883.0 C 5583.0,5883.0 5583.0,5883.0 5583.0,5883.0 M 5603.0,5918.0 C 5603.0,5918.0 5603.0,5918.0 5603.0,5918.0 M 5713.0,6083.0 C 5713.0,6083.0 5713.0,6083.0 5713.0,6083.0 M 5707.0,6100.0 C 5707.0,6100.0 5707.0,6100.0 5707.0,6100.0 M 5724.0,6126.0 C 5724.0,6126.0 5724.0,6126.0 5724.0,6126.0 M 5746.0,6157.0 C 5746.0,6157.0 5746.0,6157.0 5746.0,6157.0 M 5751.0,6177.0 C 5751.0,6177.0 5751.0,6177.0 5751.0,6177.0 M 5742.0,6178.0 C 5807.0,6177.0 6002.0,6174.0 6067.0,6173.0 M 6060.0,6140.0 C 6060.0,6140.0 6060.0,6140.0 6060.0,6140.0 M 6070.0,6141.0 C 6070.0,6141.0 6070.0,6141.0 6070.0,6141.0 M 6086.0,6171.0 C 6086.0,6171.0 6086.0,6171.0 6086.0,6171.0 M 6095.0,6160.0 C 6095.0,6160.0 6095.0,6160.0 6095.0,6160.0 M 6094.0,6124.0 C 6094.0,6124.0 6094.0,6124.0 6094.0,6124.0 M 6137.0,6162.0 C 6137.0,6162.0 6137.0,6162.0 6137.0,6162.0 M 6165.0,6180.0 C 6165.0,6180.0 6165.0,6180.0 6165.0,6180.0 M 6138.0,6180.0 C 6138.0,6180.0 6138.0,6180.0 6138.0,6180.0 M 6098.0,6185.0 C 6098.0,6185.0 6098.0,6185.0 6098.0,6185.0 M 6067.0,6173.0 C 6098.8,6174.6 6194.2,6179.4 6226.0,6181.0 M 6201.0,6177.0 C 6201.0,6177.0 6201.0,6177.0 6201.0,6177.0 M 6080.0,6055.0 C 6080.0,6055.0 6080.0,6055.0 6080.0,6055.0 M 6122.0,6073.0 C 6122.0,6073.0 6122.0,6073.0 6122.0,6073.0 M 6175.0,6144.0 C 6175.0,6144.0 6175.0,6144.0 6175.0,6144.0 M 6215.0,6154.0 C 6215.0,6154.0 6215.0,6154.0 6215.0,6154.0 M 6230.0,6147.0 C 6230.0,6147.0 6230.0,6147.0 6230.0,6147.0 M 6246.0,6174.0 C 6246.0,6174.0 6246.0,6174.0 6246.0,6174.0 M 6246.0,6190.0 C 6246.0,6190.0 6246.0,6190.0 6246.0,6190.0 M 6226.0,6181.0 C 6282.8,6180.8 6453.2,6180.2 6510.0,6180.0 M 6517.0,6173.0 C 6517.0,6173.0 6517.0,6173.0 6517.0,6173.0 M 6517.0,6187.0 C 6517.0,6187.0 6517.0,6187.0 6517.0,6187.0 M 6510.0,6180.0 C 6460.0,6177.0 6310.0,6168.0 6260.0,6165.0 M 6265.0,6160.0 C 6265.0,6160.0 6265.0,6160.0 6265.0,6160.0 M 6270.0,6165.0 C 6270.0,6165.0 6270.0,6165.0 6270.0,6165.0 M 6265.0,6170.0 C 6265.0,6170.0 6265.0,6170.0 6265.0,6170.0 M 6260.0,6165.0 C 6200.0,6161.0 6020.0,6149.0 5960.0,6145.0 M 5952.0,6125.0 C 5952.0,6125.0 5952.0,6125.0 5952.0,6125.0 M 5973.0,6140.0 C 5973.0,6140.0 5973.0,6140.0 5973.0,6140.0 M 5981.0,6160.0 C 5981.0,6160.0 5981.0,6160.0 5981.0,6160.0 M 5960.0,6145.0 C 5969.4,6146.6 5997.6,6151.4 6007.0,6153.0 M 6000.0,6136.0 C 6000.0,6136.0 6000.0,6136.0 6000.0,6136.0 M 6012.0,6138.0 C 6012.0,6138.0 6012.0,6138.0 6012.0,6138.0 M 6019.0,6155.0 C 6019.0,6155.0 6019.0,6155.0 6019.0,6155.0 M 6007.0,6153.0 C 6061.6,6151.4 6225.4,6146.6 6280.0,6145.0 M 6285.0,6140.0 C 6285.0,6140.0 6285.0,6140.0 6285.0,6140.0 M 6290.0,6145.0 C 6290.0,6145.0 6290.0,6145.0 6290.0,6145.0 M 6285.0,6150.0 C 6285.0,6150.0 6285.0,6150.0 6285.0,6150.0 M 6280.0,6145.0 C 6264.0,6143.8 6216.0,6140.2 6200.0,6139.0 M 6185.0,6085.0 C 6185.0,6085.0 6185.0,6085.0 6185.0,6085.0 M 6179.0,6045.0 C 6179.0,6045.0 6179.0,6045.0 6179.0,6045.0 M 6206.0,6137.0 C 6206.0,6137.0 6206.0,6137.0 6206.0,6137.0 M 6200.0,6139.0 C 6155.4,6134.2 6021.6,6119.8 5977.0,6115.0 M 5946.0,6100.0 C 5946.0,6100.0 5946.0,6100.0 5946.0,6100.0 M 5887.0,6060.0 C 5887.0,6060.0 5887.0,6060.0 5887.0,6060.0 M 5843.0,6020.0 C 5843.0,6020.0 5843.0,6020.0 5843.0,6020.0 M 5804.0,5963.0 C 5804.0,5963.0 5804.0,5963.0 5804.0,5963.0 M 5635.0,5713.0 C 5635.0,5713.0 5635.0,5713.0 5635.0,5713.0 M 5580.0,5658.0 C 5580.0,5658.0 5580.0,5658.0 5580.0,5658.0 M 5680.0,5708.0 C 5680.0,5708.0 5680.0,5708.0 5680.0,5708.0 M 5770.0,5847.0 C 5770.0,5847.0 5770.0,5847.0 5770.0,5847.0 M 5795.0,5886.0 C 5795.0,5886.0 5795.0,5886.0 5795.0,5886.0 M 5820.0,5932.0 C 5820.0,5932.0 5820.0,5932.0 5820.0,5932.0 M 5912.0,6049.0 C 5912.0,6049.0 5912.0,6049.0 5912.0,6049.0 M 5976.0,6092.0 C 5976.0,6092.0 5976.0,6092.0 5976.0,6092.0 M 5987.0,6126.0 C 5987.0,6126.0 5987.0,6126.0 5987.0,6126.0 M 5977.0,6115.0 C 5989.6,6117.0 6027.4,6123.0 6040.0,6125.0 M 6045.0,6120.0 C 6045.0,6120.0 6045.0,6120.0 6045.0,6120.0 M 6050.0,6125.0 C 6050.0,6125.0 6050.0,6125.0 6050.0,6125.0 M 6045.0,6130.0 C 6045.0,6130.0 6045.0,6130.0 6045.0,6130.0 M 6040.0,6125.0 C 6111.8,6113.6 6327.2,6079.4 6399.0,6068.0 M 6215.0,5876.0 C 6215.0,5876.0 6215.0,5876.0 6215.0,5876.0 M 6188.0,5914.0 C 6188.0,5914.0 6188.0,5914.0 6188.0,5914.0 M 6259.0,6105.0 C 6259.0,6105.0 6259.0,6105.0 6259.0,6105.0 M 6252.0,6099.0 C 6252.0,6099.0 6252.0,6099.0 6252.0,6099.0 M 6150.0,5931.0 C 6150.0,5931.0 6150.0,5931.0 6150.0,5931.0 M 6120.0,5889.0 C 6120.0,5889.0 6120.0,5889.0 6120.0,5889.0 M 6108.0,5880.0 C 6108.0,5880.0 6108.0,5880.0 6108.0,5880.0 M 6005.0,5815.0 C 6005.0,5815.0 6005.0,5815.0 6005.0,5815.0 M 5975.0,5780.0 C 5975.0,5780.0 5975.0,5780.0 5975.0,5780.0 M 5990.0,5782.0 C 5990.0,5782.0 5990.0,5782.0 5990.0,5782.0 M 6188.0,5854.0 C 6188.0,5854.0 6188.0,5854.0 6188.0,5854.0 M 6276.0,5863.0 C 6276.0,5863.0 6276.0,5863.0 6276.0,5863.0 M 6400.0,6012.0 C 6400.0,6012.0 6400.0,6012.0 6400.0,6012.0 M 6425.0,6088.0 C 6425.0,6088.0 6425.0,6088.0 6425.0,6088.0 M 6399.0,6068.0 C 6387.4,6044.8 6352.6,5975.2 6341.0,5952.0 M 6314.0,5919.0 C 6314.0,5919.0 6314.0,5919.0 6314.0,5919.0 M 6320.0,5938.0 C 6320.0,5938.0 6320.0,5938.0 6320.0,5938.0 M 6341.0,5952.0 C 6279.6,5981.2 6095.4,6068.8 6034.0,6098.0 M 6038.0,6094.0 C 6038.0,6094.0 6038.0,6094.0 6038.0,6094.0 M 6046.0,6110.0 C 6046.0,6110.0 6046.0,6110.0 6046.0,6110.0 M 6034.0,6098.0 C 6039.4,6097.2 6055.6,6094.8 6061.0,6094.0 M 6067.0,6088.0 C 6067.0,6088.0 6067.0,6088.0 6067.0,6088.0 M 6066.0,6107.0 C 6066.0,6107.0 6066.0,6107.0 6066.0,6107.0 M 6061.0,6094.0 C 6049.4,6087.8 6014.6,6069.2 6003.0,6063.0 M 6017.0,6063.0 C 6017.0,6063.0 6017.0,6063.0 6017.0,6063.0 M 6010.0,6070.0 C 6010.0,6070.0 6010.0,6070.0 6010.0,6070.0 M 6003.0,6063.0 C 6007.6,6060.0 6021.4,6051.0 6026.0,6048.0 M 5959.0,5864.0 C 5959.0,5864.0 5959.0,5864.0 5959.0,5864.0 M 5949.0,5834.0 C 5949.0,5834.0 5949.0,5834.0 5949.0,5834.0 M 5944.0,5806.0 C 5944.0,5806.0 5944.0,5806.0 5944.0,5806.0 M 5923.0,5794.0 C 5923.0,5794.0 5923.0,5794.0 5923.0,5794.0 M 5929.0,5809.0 C 5929.0,5809.0 5929.0,5809.0 5929.0,5809.0 M 5931.0,5824.0 C 5931.0,5824.0 5931.0,5824.0 5931.0,5824.0 M 5891.0,5798.0 C 5891.0,5798.0 5891.0,5798.0 5891.0,5798.0 M 5860.0,5778.0 C 5860.0,5778.0 5860.0,5778.0 5860.0,5778.0 M 5892.0,5822.0 C 5892.0,5822.0 5892.0,5822.0 5892.0,5822.0 M 5926.0,5868.0 C 5926.0,5868.0 5926.0,5868.0 5926.0,5868.0 M 5935.0,5909.0 C 5935.0,5909.0 5935.0,5909.0 5935.0,5909.0 M 5940.0,5935.0 C 5940.0,5935.0 5940.0,5935.0 5940.0,5935.0 M 5922.0,5913.0 C 5922.0,5913.0 5922.0,5913.0 5922.0,5913.0 M 5859.0,5853.0 C 5859.0,5853.0 5859.0,5853.0 5859.0,5853.0 M 5812.0,5799.0 C 5812.0,5799.0 5812.0,5799.0 5812.0,5799.0 M 5839.0,5820.0 C 5839.0,5820.0 5839.0,5820.0 5839.0,5820.0 M 5870.0,5844.0 C 5870.0,5844.0 5870.0,5844.0 5870.0,5844.0 M 5855.0,5820.0 C 5855.0,5820.0 5855.0,5820.0 5855.0,5820.0 M 5842.0,5795.0 C 5842.0,5795.0 5842.0,5795.0 5842.0,5795.0 M 5688.0,5646.0 C 5688.0,5646.0 5688.0,5646.0 5688.0,5646.0 M 5680.0,5641.0 C 5680.0,5641.0 5680.0,5641.0 5680.0,5641.0 M 5663.0,5630.0 C 5663.0,5630.0 5663.0,5630.0 5663.0,5630.0 M 5695.0,5675.0 C 5695.0,5675.0 5695.0,5675.0 5695.0,5675.0 M 5745.0,5720.0 C 5745.0,5720.0 5745.0,5720.0 5745.0,5720.0 M 5677.0,5675.0 C 5677.0,5675.0 5677.0,5675.0 5677.0,5675.0 M 5538.0,5629.0 C 5538.0,5629.0 5538.0,5629.0 5538.0,5629.0 M 5503.0,5621.0 C 5503.0,5621.0 5503.0,5621.0 5503.0,5621.0 M 5524.0,5610.0 C 5524.0,5610.0 5524.0,5610.0 5524.0,5610.0 M 5556.0,5594.0 C 5556.0,5594.0 5556.0,5594.0 5556.0,5594.0 M 5550.0,5554.0 C 5550.0,5554.0 5550.0,5554.0 5550.0,5554.0 M 5541.0,5535.0 C 5541.0,5535.0 5541.0,5535.0 5541.0,5535.0 M 5538.0,5455.0 C 5538.0,5455.0 5538.0,5455.0 5538.0,5455.0 M 5541.0,5413.0 C 5541.0,5413.0 5541.0,5413.0 5541.0,5413.0 M 5535.0,5380.0 C 5535.0,5380.0 5535.0,5380.0 5535.0,5380.0 M 5574.0,5462.0 C 5574.0,5462.0 5574.0,5462.0 5574.0,5462.0 M 5577.0,5467.0 C 5577.0,5467.0 5577.0,5467.0 5577.0,5467.0 M 5630.0,5577.0 C 5630.0,5577.0 5630.0,5577.0 5630.0,5577.0 M 5671.0,5600.0 C 5671.0,5600.0 5671.0,5600.0 5671.0,5600.0 M 5649.0,5463.0 C 5649.0,5463.0 5649.0,5463.0 5649.0,5463.0 M 5649.0,5360.0 C 5649.0,5360.0 5649.0,5360.0 5649.0,5360.0 M 5655.0,5373.0 C 5655.0,5373.0 5655.0,5373.0 5655.0,5373.0 M 5659.0,5415.0 C 5659.0,5415.0 5659.0,5415.0 5659.0,5415.0 M 5669.0,5383.0 C 5669.0,5383.0 5669.0,5383.0 5669.0,5383.0 M 5680.0,5320.0 C 5680.0,5320.0 5680.0,5320.0 5680.0,5320.0 M 5663.0,5247.0 C 5663.0,5247.0 5663.0,5247.0 5663.0,5247.0 M 5658.0,5229.0 C 5658.0,5229.0 5658.0,5229.0 5658.0,5229.0 M 5680.0,5225.0 C 5680.0,5225.0 5680.0,5225.0 5680.0,5225.0 M 5693.0,5213.0 C 5693.0,5213.0 5693.0,5213.0 5693.0,5213.0 M 5707.0,5286.0 C 5707.0,5286.0 5707.0,5286.0 5707.0,5286.0 M 5716.0,5423.0 C 5716.0,5423.0 5716.0,5423.0 5716.0,5423.0 M 5691.0,5478.0 C 5691.0,5478.0 5691.0,5478.0 5691.0,5478.0 M 5691.0,5487.0 C 5691.0,5487.0 5691.0,5487.0 5691.0,5487.0 M 5715.0,5502.0 C 5715.0,5502.0 5715.0,5502.0 5715.0,5502.0 M 5711.0,5513.0 C 5711.0,5513.0 5711.0,5513.0 5711.0,5513.0 M 5713.0,5536.0 C 5713.0,5536.0 5713.0,5536.0 5713.0,5536.0 M 5734.0,5571.0 C 5734.0,5571.0 5734.0,5571.0 5734.0,5571.0 M 5754.0,5600.0 C 5754.0,5600.0 5754.0,5600.0 5754.0,5600.0 M 5764.0,5586.0 C 5764.0,5586.0 5764.0,5586.0 5764.0,5586.0 M 5768.0,5566.0 C 5768.0,5566.0 5768.0,5566.0 5768.0,5566.0 M 5784.0,5585.0 C 5784.0,5585.0 5784.0,5585.0 5784.0,5585.0 M 5800.0,5610.0 C 5800.0,5610.0 5800.0,5610.0 5800.0,5610.0 M 5802.0,5586.0 C 5802.0,5586.0 5802.0,5586.0 5802.0,5586.0 M 5792.0,5551.0 C 5792.0,5551.0 5792.0,5551.0 5792.0,5551.0 M 5780.0,5495.0 C 5780.0,5495.0 5780.0,5495.0 5780.0,5495.0 M 5770.0,5427.0 C 5770.0,5427.0 5770.0,5427.0 5770.0,5427.0 M 5759.0,5403.0 C 5759.0,5403.0 5759.0,5403.0 5759.0,5403.0 M 5754.0,5451.0 C 5754.0,5451.0 5754.0,5451.0 5754.0,5451.0 M 5749.0,5474.0 C 5749.0,5474.0 5749.0,5474.0 5749.0,5474.0 M 5761.0,5263.0 C 5761.0,5263.0 5761.0,5263.0 5761.0,5263.0 M 5773.0,5235.0 C 5773.0,5235.0 5773.0,5235.0 5773.0,5235.0 M 5782.0,5283.0 C 5782.0,5283.0 5782.0,5283.0 5782.0,5283.0 M 5780.0,5349.0 C 5780.0,5349.0 5780.0,5349.0 5780.0,5349.0 M 5785.0,5380.0 C 5785.0,5380.0 5785.0,5380.0 5785.0,5380.0 M 5800.0,5451.0 C 5800.0,5451.0 5800.0,5451.0 5800.0,5451.0 M 5832.0,5560.0 C 5832.0,5560.0 5832.0,5560.0 5832.0,5560.0 M 5830.0,5541.0 C 5830.0,5541.0 5830.0,5541.0 5830.0,5541.0 M 5820.0,5503.0 C 5820.0,5503.0 5820.0,5503.0 5820.0,5503.0 M 5835.0,5510.0 C 5835.0,5510.0 5835.0,5510.0 5835.0,5510.0 M 5850.0,5521.0 C 5850.0,5521.0 5850.0,5521.0 5850.0,5521.0 M 5865.0,5549.0 C 5865.0,5549.0 5865.0,5549.0 5865.0,5549.0 M 5851.0,5573.0 C 5851.0,5573.0 5851.0,5573.0 5851.0,5573.0 M 5848.0,5581.0 C 5848.0,5581.0 5848.0,5581.0 5848.0,5581.0 M 5860.0,5615.0 C 5860.0,5615.0 5860.0,5615.0 5860.0,5615.0 M 5935.0,5770.0 C 5935.0,5770.0 5935.0,5770.0 5935.0,5770.0 M 5967.0,5814.0 C 5967.0,5814.0 5967.0,5814.0 5967.0,5814.0 M 5996.0,5853.0 C 5996.0,5853.0 5996.0,5853.0 5996.0,5853.0 M 6010.0,5871.0 C 6010.0,5871.0 6010.0,5871.0 6010.0,5871.0 M 6025.0,5896.0 C 6025.0,5896.0 6025.0,5896.0 6025.0,5896.0 M 6050.0,5953.0 C 6050.0,5953.0 6050.0,5953.0 6050.0,5953.0 M 6069.0,6011.0 C 6069.0,6011.0 6069.0,6011.0 6069.0,6011.0 M 6070.0,6041.0 C 6070.0,6041.0 6070.0,6041.0 6070.0,6041.0 M 6056.0,6040.0 C 6056.0,6040.0 6056.0,6040.0 6056.0,6040.0 M 6036.0,5985.0 C 6036.0,5985.0 6036.0,5985.0 6036.0,5985.0 M 6021.0,5963.0 C 6021.0,5963.0 6021.0,5963.0 6021.0,5963.0 M 6035.0,6017.0 C 6035.0,6017.0 6035.0,6017.0 6035.0,6017.0 M 6040.0,6060.0 C 6040.0,6060.0 6040.0,6060.0 6040.0,6060.0 M 6026.0,6048.0 C 6024.8,6023.6 6021.2,5950.4 6020.0,5926.0 M 6008.0,5914.0 C 6008.0,5914.0 6008.0,5914.0 6008.0,5914.0 M 6004.0,5918.0 C 6004.0,5918.0 6004.0,5918.0 6004.0,5918.0 M 6020.0,5926.0 C 6016.0,5917.8 6004.0,5893.2 6000.0,5885.0 M 5995.0,5880.0 C 5995.0,5880.0 5995.0,5880.0 5995.0,5880.0 M 5990.0,5885.0 C 5990.0,5885.0 5990.0,5885.0 5990.0,5885.0 M 5995.0,5890.0 C 5995.0,5890.0 5995.0,5890.0 5995.0,5890.0 M 6000.0,5885.0 C 5973.6,5855.8 5894.4,5768.2 5868.0,5739.0 M 5860.0,5733.0 C 5860.0,5733.0 5860.0,5733.0 5860.0,5733.0 M 5833.0,5711.0 C 5833.0,5711.0 5833.0,5711.0 5833.0,5711.0 M 5800.0,5641.0 C 5800.0,5641.0 5800.0,5641.0 5800.0,5641.0 M 5755.0,5611.0 C 5755.0,5611.0 5755.0,5611.0 5755.0,5611.0 M 5758.0,5617.0 C 5758.0,5617.0 5758.0,5617.0 5758.0,5617.0 M 5764.0,5632.0 C 5764.0,5632.0 5764.0,5632.0 5764.0,5632.0 M 5789.0,5669.0 C 5789.0,5669.0 5789.0,5669.0 5789.0,5669.0 M 5820.0,5721.0 C 5820.0,5721.0 5820.0,5721.0 5820.0,5721.0 M 5868.0,5739.0 C 5840.2,5715.0 5756.8,5643.0 5729.0,5619.0 M 5705.0,5630.0 C 5705.0,5630.0 5705.0,5630.0 5705.0,5630.0 M 5726.0,5633.0 C 5726.0,5633.0 5726.0,5633.0 5726.0,5633.0 M 5729.0,5619.0 C 5707.6,5615.0 5643.4,5603.0 5622.0,5599.0 M 5570.0,5588.0 C 5570.0,5588.0 5570.0,5588.0 5570.0,5588.0 M 5611.0,5606.0 C 5611.0,5606.0 5611.0,5606.0 5611.0,5606.0 M 5622.0,5599.0 C 5637.6,5598.2 5684.4,5595.8 5700.0,5595.0 M 5695.0,5590.0 C 5695.0,5590.0 5695.0,5590.0 5695.0,5590.0 M 5690.0,5595.0 C 5690.0,5595.0 5690.0,5595.0 5690.0,5595.0 M 5695.0,5600.0 C 5695.0,5600.0 5695.0,5600.0 5695.0,5600.0 M 5700.0,5595.0 C 5702.2,5587.4 5708.8,5564.6 5711.0,5557.0 M 5700.0,5561.0 C 5700.0,5561.0 5700.0,5561.0 5700.0,5561.0 M 5707.0,5584.0 C 5707.0,5584.0 5707.0,5584.0 5707.0,5584.0 M 5718.0,5580.0 C 5718.0,5580.0 5718.0,5580.0 5718.0,5580.0 M 5711.0,5557.0 C 5690.8,5558.6 5630.2,5563.4 5610.0,5565.0 M 5605.0,5560.0 C 5605.0,5560.0 5605.0,5560.0 5605.0,5560.0 M 5600.0,5565.0 C 5600.0,5565.0 5600.0,5565.0 5600.0,5565.0 M 5605.0,5570.0 C 5605.0,5570.0 5605.0,5570.0 5605.0,5570.0 M 5610.0,5565.0 C 5626.0,5565.0 5674.0,5565.0 5690.0,5565.0 M 5685.0,5560.0 C 5685.0,5560.0 5685.0,5560.0 5685.0,5560.0 M 5680.0,5565.0 C 5680.0,5565.0 5680.0,5565.0 5680.0,5565.0 M 5685.0,5570.0 C 5685.0,5570.0 5685.0,5570.0 5685.0,5570.0 M 5690.0,5565.0 C 5673.4,5560.6 5623.6,5547.4 5607.0,5543.0 M 5593.0,5543.0 C 5593.0,5543.0 5593.0,5543.0 5593.0,5543.0 M 5600.0,5550.0 C 5600.0,5550.0 5600.0,5550.0 5600.0,5550.0 M 5607.0,5543.0 C 5597.0,5535.0 5567.0,5511.0 5557.0,5503.0 M 5550.0,5510.0 C 5550.0,5510.0 5550.0,5510.0 5550.0,5510.0 M 5557.0,5517.0 C 5557.0,5517.0 5557.0,5517.0 5557.0,5517.0 M 5557.0,5503.0 C 5585.6,5485.2 5671.4,5431.8 5700.0,5414.0 M 5690.0,5395.0 C 5690.0,5395.0 5690.0,5395.0 5690.0,5395.0 M 5680.0,5426.0 C 5680.0,5426.0 5680.0,5426.0 5680.0,5426.0 M 5690.0,5445.0 C 5690.0,5445.0 5690.0,5445.0 5690.0,5445.0 M 5700.0,5414.0 C 5700.0,5404.4 5700.0,5375.6 5700.0,5366.0 M 5688.0,5354.0 C 5688.0,5354.0 5688.0,5354.0 5688.0,5354.0 M 5684.0,5358.0 C 5684.0,5358.0 5684.0,5358.0 5684.0,5358.0 M 5700.0,5366.0 C 5718.0,5425.8 5772.0,5605.2 5790.0,5665.0 M 5795.0,5660.0 C 5795.0,5660.0 5795.0,5660.0 5795.0,5660.0 M 5800.0,5665.0 C 5800.0,5665.0 5800.0,5665.0 5800.0,5665.0 M 5795.0,5670.0 C 5795.0,5670.0 5795.0,5670.0 5795.0,5670.0 M 5790.0,5665.0 C 5774.0,5657.0 5726.0,5633.0 5710.0,5625.0 M 5715.0,5620.0 C 5715.0,5620.0 5715.0,5620.0 5715.0,5620.0 M 5720.0,5625.0 C 5720.0,5625.0 5720.0,5625.0 5720.0,5625.0 M 5715.0,5630.0 C 5715.0,5630.0 5715.0,5630.0 5715.0,5630.0 M 5710.0,5625.0 C 5763.6,5699.8 5924.4,5924.2 5978.0,5999.0 M 5968.0,5975.0 C 5968.0,5975.0 5968.0,5975.0 5968.0,5975.0 M 5960.0,5957.0 C 5960.0,5957.0 5960.0,5957.0 5960.0,5957.0 M 5944.0,5908.0 C 5944.0,5908.0 5944.0,5908.0 5944.0,5908.0 M 5956.0,5888.0 C 5956.0,5888.0 5956.0,5888.0 5956.0,5888.0 M 5970.0,5920.0 C 5970.0,5920.0 5970.0,5920.0 5970.0,5920.0 M 5985.0,5975.0 C 5985.0,5975.0 5985.0,5975.0 5985.0,5975.0 M 5978.0,5999.0 C 5930.2,5989.8 5786.8,5962.2 5739.0,5953.0 M 5715.0,5925.0 C 5715.0,5925.0 5715.0,5925.0 5715.0,5925.0 M 5743.0,5949.0 C 5743.0,5949.0 5743.0,5949.0 5743.0,5949.0 M 5770.0,5977.0 C 5770.0,5977.0 5770.0,5977.0 5770.0,5977.0 M 5739.0,5953.0 C 5765.2,5942.0 5843.8,5909.0 5870.0,5898.0 M 5876.0,5892.0 C 5876.0,5892.0 5876.0,5892.0 5876.0,5892.0 M 5888.0,5916.0 C 5888.0,5916.0 5888.0,5916.0 5888.0,5916.0 M 5870.0,5898.0 C 5836.0,5899.4 5734.0,5903.6 5700.0,5905.0 M 5705.0,5900.0 C 5705.0,5900.0 5705.0,5900.0 5705.0,5900.0 M 5710.0,5905.0 C 5710.0,5905.0 5710.0,5905.0 5710.0,5905.0 M 5705.0,5910.0 C 5705.0,5910.0 5705.0,5910.0 5705.0,5910.0 M 5700.0,5905.0 C 5716.0,5894.0 5764.0,5861.0 5780.0,5850.0 M 5787.0,5843.0 C 5787.0,5843.0 5787.0,5843.0 5787.0,5843.0 M 5787.0,5857.0 C 5787.0,5857.0 5787.0,5857.0 5787.0,5857.0 M 5780.0,5850.0 C 5811.0,5846.0 5904.0,5834.0 5935.0,5830.0 M 5946.0,5820.0 C 5946.0,5820.0 5946.0,5820.0 5946.0,5820.0 M 5945.0,5830.0 C 5945.0,5830.0 5945.0,5830.0 5945.0,5830.0 M 5934.0,5840.0 C 5934.0,5840.0 5934.0,5840.0 5934.0,5840.0 M 5935.0,5830.0 C 6022.8,5829.8 6286.2,5829.2 6374.0,5829.0 M 6272.0,5791.0 C 6272.0,5791.0 6272.0,5791.0 6272.0,5791.0 M 6221.0,5743.0 C 6221.0,5743.0 6221.0,5743.0 6221.0,5743.0 M 6300.0,5763.0 C 6300.0,5763.0 6300.0,5763.0 6300.0,5763.0 M 6405.0,5769.0 C 6405.0,5769.0 6405.0,5769.0 6405.0,5769.0 M 6676.0,5762.0 C 6676.0,5762.0 6676.0,5762.0 6676.0,5762.0 M 6671.0,5787.0 C 6671.0,5787.0 6671.0,5787.0 6671.0,5787.0 M 6660.0,5790.0 C 6660.0,5790.0 6660.0,5790.0 6660.0,5790.0 M 6645.0,5805.0 C 6645.0,5805.0 6645.0,5805.0 6645.0,5805.0 M 6631.0,5816.0 C 6631.0,5816.0 6631.0,5816.0 6631.0,5816.0 M 6618.0,5813.0 C 6618.0,5813.0 6618.0,5813.0 6618.0,5813.0 M 6374.0,5829.0 C 6433.2,5816.2 6610.8,5777.8 6670.0,5765.0 M 6665.0,5760.0 C 6665.0,5760.0 6665.0,5760.0 6665.0,5760.0 M 6660.0,5765.0 C 6660.0,5765.0 6660.0,5765.0 6660.0,5765.0 M 6665.0,5770.0 C 6665.0,5770.0 6665.0,5770.0 6665.0,5770.0 M 6670.0,5765.0 C 6488.0,5765.0 5942.0,5765.0 5760.0,5765.0 M 5765.0,5760.0 C 5765.0,5760.0 5765.0,5760.0 5765.0,5760.0 M 5770.0,5765.0 C 5770.0,5765.0 5770.0,5765.0 5770.0,5765.0 M 5765.0,5770.0 C 5765.0,5770.0 5765.0,5770.0 5765.0,5770.0 M 5760.0,5765.0 C 5758.0,5761.0 5752.0,5749.0 5750.0,5745.0 M 5755.0,5740.0 C 5755.0,5740.0 5755.0,5740.0 5755.0,5740.0 M 5760.0,5745.0 C 5760.0,5745.0 5760.0,5745.0 5760.0,5745.0 M 5755.0,5750.0 C 5755.0,5750.0 5755.0,5750.0 5755.0,5750.0 M 5750.0,5745.0 C 5708.0,5733.0 5582.0,5697.0 5540.0,5685.0 M 5545.0,5680.0 C 5545.0,5680.0 5545.0,5680.0 5545.0,5680.0 M 5550.0,5685.0 C 5550.0,5685.0 5550.0,5685.0 5550.0,5685.0 M 5545.0,5690.0 C 5545.0,5690.0 5545.0,5690.0 5545.0,5690.0 M 5540.0,5685.0 C 5718.0,5685.0 6252.0,5685.0 6430.0,5685.0 M 6435.0,5680.0 C 6435.0,5680.0 6435.0,5680.0 6435.0,5680.0 M 6440.0,5685.0 C 6440.0,5685.0 6440.0,5685.0 6440.0,5685.0 M 6435.0,5690.0 C 6435.0,5690.0 6435.0,5690.0 6435.0,5690.0 M 6430.0,5685.0 C 6415.0,5681.2 6370.0,5669.8 6355.0,5666.0 M 6285.0,5630.0 C 6285.0,5630.0 6285.0,5630.0 6285.0,5630.0 M 6360.0,5655.0 C 6360.0,5655.0 6360.0,5655.0 6360.0,5655.0 M 6355.0,5666.0 C 6388.0,5668.2 6487.0,5674.8 6520.0,5677.0 M 6550.0,5652.0 C 6550.0,5652.0 6550.0,5652.0 6550.0,5652.0 M 6580.0,5639.0 C 6580.0,5639.0 6580.0,5639.0 6580.0,5639.0 M 6550.0,5665.0 C 6550.0,5665.0 6550.0,5665.0 6550.0,5665.0 M 6520.0,5677.0 C 6600.0,5671.6 6840.0,5655.4 6920.0,5650.0 M 6945.0,5650.0 C 6945.0,5650.0 6945.0,5650.0 6945.0,5650.0 M 6950.0,5659.0 C 6950.0,5659.0 6950.0,5659.0 6950.0,5659.0 M 6920.0,5650.0 C 6809.0,5645.8 6476.0,5633.2 6365.0,5629.0 M 6263.0,5604.0 C 6263.0,5604.0 6263.0,5604.0 6263.0,5604.0 M 6415.0,5585.0 C 6415.0,5585.0 6415.0,5585.0 6415.0,5585.0 M 6590.0,5591.0 C 6590.0,5591.0 6590.0,5591.0 6590.0,5591.0 M 6565.0,5620.0 C 6565.0,5620.0 6565.0,5620.0 6565.0,5620.0 M 6365.0,5629.0 C 6389.4,5627.8 6462.6,5624.2 6487.0,5623.0 M 6473.0,5623.0 C 6473.0,5623.0 6473.0,5623.0 6473.0,5623.0 M 6480.0,5630.0 C 6480.0,5630.0 6480.0,5630.0 6480.0,5630.0 M 6487.0,5623.0 C 6496.6,5620.4 6525.4,5612.6 6535.0,5610.0 M 6531.0,5600.0 C 6531.0,5600.0 6531.0,5600.0 6531.0,5600.0 M 6515.0,5610.0 C 6515.0,5610.0 6515.0,5610.0 6515.0,5610.0 M 6519.0,5620.0 C 6519.0,5620.0 6519.0,5620.0 6519.0,5620.0 M 6535.0,5610.0 C 6509.4,5608.6 6432.6,5604.4 6407.0,5603.0 M 6393.0,5603.0 C 6393.0,5603.0 6393.0,5603.0 6393.0,5603.0 M 6400.0,5610.0 C 6400.0,5610.0 6400.0,5610.0 6400.0,5610.0 M 6407.0,5603.0 C 6415.6,5603.4 6441.4,5604.6 6450.0,5605.0 M 6445.0,5600.0 C 6445.0,5600.0 6445.0,5600.0 6445.0,5600.0 M 6440.0,5605.0 C 6440.0,5605.0 6440.0,5605.0 6440.0,5605.0 M 6445.0,5610.0 C 6445.0,5610.0 6445.0,5610.0 6445.0,5610.0 M 6450.0,5605.0 C 6573.0,5612.0 6942.0,5633.0 7065.0,5640.0 M 7076.0,5630.0 C 7076.0,5630.0 7076.0,5630.0 7076.0,5630.0 M 7075.0,5640.0 C 7075.0,5640.0 7075.0,5640.0 7075.0,5640.0 M 7064.0,5650.0 C 7064.0,5650.0 7064.0,5650.0 7064.0,5650.0 M 7065.0,5640.0 C 7024.0,5639.0 6901.0,5636.0 6860.0,5635.0 M 6865.0,5630.0 C 6865.0,5630.0 6865.0,5630.0 6865.0,5630.0 M 6870.0,5635.0 C 6870.0,5635.0 6870.0,5635.0 6870.0,5635.0 M 6865.0,5640.0 C 6865.0,5640.0 6865.0,5640.0 6865.0,5640.0 M 6860.0,5635.0 C 6873.0,5631.2 6912.0,5619.8 6925.0,5616.0 M 6878.0,5613.0 C 6878.0,5613.0 6878.0,5613.0 6878.0,5613.0 M 6870.0,5588.0 C 6870.0,5588.0 6870.0,5588.0 6870.0,5588.0 M 6960.0,5517.0 C 6960.0,5517.0 6960.0,5517.0 6960.0,5517.0 M 6954.0,5527.0 C 6954.0,5527.0 6954.0,5527.0 6954.0,5527.0 M 6906.0,5583.0 C 6906.0,5583.0 6906.0,5583.0 6906.0,5583.0 M 6950.0,5587.0 C 6950.0,5587.0 6950.0,5587.0 6950.0,5587.0 M 7007.0,5571.0 C 7007.0,5571.0 7007.0,5571.0 7007.0,5571.0 M 7082.0,5559.0 C 7082.0,5559.0 7082.0,5559.0 7082.0,5559.0 M 7076.0,5599.0 C 7076.0,5599.0 7076.0,5599.0 7076.0,5599.0 M 6925.0,5616.0 C 6938.0,5613.8 6977.0,5607.2 6990.0,5605.0 M 6985.0,5600.0 C 6985.0,5600.0 6985.0,5600.0 6985.0,5600.0 M 6980.0,5605.0 C 6980.0,5605.0 6980.0,5605.0 6980.0,5605.0 M 6985.0,5610.0 C 6985.0,5610.0 6985.0,5610.0 6985.0,5610.0 M 6990.0,5605.0 C 6684.0,5602.0 5766.0,5593.0 5460.0,5590.0 M 5453.0,5563.0 C 5453.0,5563.0 5453.0,5563.0 5453.0,5563.0 M 5470.0,5580.0 C 5470.0,5580.0 5470.0,5580.0 5470.0,5580.0 M 5477.0,5607.0 C 5477.0,5607.0 5477.0,5607.0 5477.0,5607.0 M 5460.0,5590.0 C 5474.0,5586.0 5516.0,5574.0 5530.0,5570.0 M 5537.0,5563.0 C 5537.0,5563.0 5537.0,5563.0 5537.0,5563.0 M 5537.0,5577.0 C 5537.0,5577.0 5537.0,5577.0 5537.0,5577.0 M 5530.0,5570.0 C 5554.0,5569.0 5626.0,5566.0 5650.0,5565.0 M 5655.0,5560.0 C 5655.0,5560.0 5655.0,5560.0 5655.0,5560.0 M 5660.0,5565.0 C 5660.0,5565.0 5660.0,5565.0 5660.0,5565.0 M 5655.0,5570.0 C 5655.0,5570.0 5655.0,5570.0 5655.0,5570.0 M 5650.0,5565.0 C 5619.4,5554.4 5527.6,5522.6 5497.0,5512.0 M 5487.0,5438.0 C 5487.0,5438.0 5487.0,5438.0 5487.0,5438.0 M 5471.0,5312.0 C 5471.0,5312.0 5471.0,5312.0 5471.0,5312.0 M 5483.0,5344.0 C 5483.0,5344.0 5483.0,5344.0 5483.0,5344.0 M 5497.0,5370.0 C 5497.0,5370.0 5497.0,5370.0 5497.0,5370.0 M 5506.0,5385.0 C 5506.0,5385.0 5506.0,5385.0 5506.0,5385.0 M 5514.0,5412.0 C 5514.0,5412.0 5514.0,5412.0 5514.0,5412.0 M 5518.0,5450.0 C 5518.0,5450.0 5518.0,5450.0 5518.0,5450.0 M 5509.0,5478.0 C 5509.0,5478.0 5509.0,5478.0 5509.0,5478.0 M 5501.0,5550.0 C 5501.0,5550.0 5501.0,5550.0 5501.0,5550.0 M 5497.0,5512.0 C 5499.6,5498.6 5507.4,5458.4 5510.0,5445.0 M 5505.0,5440.0 C 5505.0,5440.0 5505.0,5440.0 5505.0,5440.0 M 5500.0,5445.0 C 5500.0,5445.0 5500.0,5445.0 5500.0,5445.0 M 5505.0,5450.0 C 5505.0,5450.0 5505.0,5450.0 5505.0,5450.0 M 5510.0,5445.0 C 5534.4,5461.8 5607.6,5512.2 5632.0,5529.0 M 5615.0,5470.0 C 5615.0,5470.0 5615.0,5470.0 5615.0,5470.0 M 5600.0,5425.0 C 5600.0,5425.0 5600.0,5425.0 5600.0,5425.0 M 5589.0,5330.0 C 5589.0,5330.0 5589.0,5330.0 5589.0,5330.0 M 5601.0,5330.0 C 5601.0,5330.0 5601.0,5330.0 5601.0,5330.0 M 5606.0,5318.0 C 5606.0,5318.0 5606.0,5318.0 5606.0,5318.0 M 5629.0,5287.0 C 5629.0,5287.0 5629.0,5287.0 5629.0,5287.0 M 5654.0,5303.0 C 5654.0,5303.0 5654.0,5303.0 5654.0,5303.0 M 5659.0,5327.0 C 5659.0,5327.0 5659.0,5327.0 5659.0,5327.0 M 5642.0,5327.0 C 5642.0,5327.0 5642.0,5327.0 5642.0,5327.0 M 5630.0,5310.0 C 5630.0,5310.0 5630.0,5310.0 5630.0,5310.0 M 5638.0,5505.0 C 5638.0,5505.0 5638.0,5505.0 5638.0,5505.0 M 5632.0,5529.0 C 5654.0,5529.2 5720.0,5529.8 5742.0,5530.0 M 5747.0,5518.0 C 5747.0,5518.0 5747.0,5518.0 5747.0,5518.0 M 5747.0,5543.0 C 5747.0,5543.0 5747.0,5543.0 5747.0,5543.0 M 5742.0,5530.0 C 5677.8,5528.8 5485.2,5525.2 5421.0,5524.0 M 5427.0,5518.0 C 5427.0,5518.0 5427.0,5518.0 5427.0,5518.0 M 5426.0,5537.0 C 5426.0,5537.0 5426.0,5537.0 5426.0,5537.0 M 5421.0,5524.0 C 5630.8,5525.2 6260.2,5528.8 6470.0,5530.0 M 6425.0,5523.0 C 6425.0,5523.0 6425.0,5523.0 6425.0,5523.0 M 6473.0,5522.0 C 6473.0,5522.0 6473.0,5522.0 6473.0,5522.0 M 6520.0,5530.0 C 6520.0,5530.0 6520.0,5530.0 6520.0,5530.0 M 6518.0,5538.0 C 6518.0,5538.0 6518.0,5538.0 6518.0,5538.0 M 6470.0,5530.0 C 6482.0,5531.0 6518.0,5534.0 6530.0,5535.0 M 6535.0,5530.0 C 6535.0,5530.0 6535.0,5530.0 6535.0,5530.0 M 6540.0,5535.0 C 6540.0,5535.0 6540.0,5535.0 6540.0,5535.0 M 6535.0,5540.0 C 6535.0,5540.0 6535.0,5540.0 6535.0,5540.0 M 6530.0,5535.0 C 6317.0,5530.0 5678.0,5515.0 5465.0,5510.0 M 5455.0,5446.0 C 5455.0,5446.0 5455.0,5446.0 5455.0,5446.0 M 5473.0,5483.0 C 5473.0,5483.0 5473.0,5483.0 5473.0,5483.0 M 5465.0,5510.0 C 5454.0,5507.0 5421.0,5498.0 5410.0,5495.0 M 5415.0,5490.0 C 5415.0,5490.0 5415.0,5490.0 5415.0,5490.0 M 5420.0,5495.0 C 5420.0,5495.0 5420.0,5495.0 5420.0,5495.0 M 5415.0,5500.0 C 5415.0,5500.0 5415.0,5500.0 5415.0,5500.0 M 5410.0,5495.0 C 5392.2,5490.8 5338.8,5478.2 5321.0,5474.0 M 5327.0,5468.0 C 5327.0,5468.0 5327.0,5468.0 5327.0,5468.0 M 5326.0,5487.0 C 5326.0,5487.0 5326.0,5487.0 5326.0,5487.0 M 5321.0,5474.0 C 5426.0,5470.8 5741.0,5461.2 5846.0,5458.0 M 5831.0,5408.0 C 5831.0,5408.0 5831.0,5408.0 5831.0,5408.0 M 5850.0,5290.0 C 5850.0,5290.0 5850.0,5290.0 5850.0,5290.0 M 5845.0,5356.0 C 5845.0,5356.0 5845.0,5356.0 5845.0,5356.0 M 5835.0,5388.0 C 5835.0,5388.0 5835.0,5388.0 5835.0,5388.0 M 5860.0,5362.0 C 5860.0,5362.0 5860.0,5362.0 5860.0,5362.0 M 5870.0,5360.0 C 5870.0,5360.0 5870.0,5360.0 5870.0,5360.0 M 5871.0,5386.0 C 5871.0,5386.0 5871.0,5386.0 5871.0,5386.0 M 5867.0,5419.0 C 5867.0,5419.0 5867.0,5419.0 5867.0,5419.0 M 5846.0,5458.0 C 5763.2,5439.4 5514.8,5383.6 5432.0,5365.0 M 5437.0,5353.0 C 5437.0,5353.0 5437.0,5353.0 5437.0,5353.0 M 5437.0,5383.0 C 5437.0,5383.0 5437.0,5383.0 5437.0,5383.0 M 5432.0,5365.0 C 5451.6,5362.2 5510.4,5353.8 5530.0,5351.0 M 5503.0,5310.0 C 5503.0,5310.0 5503.0,5310.0 5503.0,5310.0 M 5492.0,5262.0 C 5492.0,5262.0 5492.0,5262.0 5492.0,5262.0 M 5514.0,5189.0 C 5514.0,5189.0 5514.0,5189.0 5514.0,5189.0 M 5545.0,5199.0 C 5545.0,5199.0 5545.0,5199.0 5545.0,5199.0 M 5536.0,5283.0 C 5536.0,5283.0 5536.0,5283.0 5536.0,5283.0 M 5534.0,5324.0 C 5534.0,5324.0 5534.0,5324.0 5534.0,5324.0 M 5536.0,5370.0 C 5536.0,5370.0 5536.0,5370.0 5536.0,5370.0 M 5530.0,5351.0 C 5523.4,5335.4 5503.6,5288.6 5497.0,5273.0 M 5490.0,5280.0 C 5490.0,5280.0 5490.0,5280.0 5490.0,5280.0 M 5497.0,5287.0 C 5497.0,5287.0 5497.0,5287.0 5497.0,5287.0 M 5497.0,5273.0 C 5465.6,5289.4 5371.4,5338.6 5340.0,5355.0 M 5345.0,5350.0 C 5345.0,5350.0 5345.0,5350.0 5345.0,5350.0 M 5350.0,5355.0 C 5350.0,5355.0 5350.0,5355.0 5350.0,5355.0 M 5345.0,5360.0 C 5345.0,5360.0 5345.0,5360.0 5345.0,5360.0 M 5340.0,5355.0 C 5432.0,5352.8 5708.0,5346.2 5800.0,5344.0 M 5815.0,5304.0 C 5815.0,5304.0 5815.0,5304.0 5815.0,5304.0 M 5830.0,5286.0 C 5830.0,5286.0 5830.0,5286.0 5830.0,5286.0 M 5815.0,5326.0 C 5815.0,5326.0 5815.0,5326.0 5815.0,5326.0 M 5800.0,5344.0 C 5750.0,5340.6 5600.0,5330.4 5550.0,5327.0 M 5593.0,5260.0 C 5593.0,5260.0 5593.0,5260.0 5593.0,5260.0 M 5595.0,5290.0 C 5595.0,5290.0 5595.0,5290.0 5595.0,5290.0 M 5580.0,5321.0 C 5580.0,5321.0 5580.0,5321.0 5580.0,5321.0 M 5565.0,5340.0 C 5565.0,5340.0 5565.0,5340.0 5565.0,5340.0 M 5550.0,5327.0 C 5791.0,5324.2 6514.0,5315.8 6755.0,5313.0 M 6724.0,5294.0 C 6724.0,5294.0 6724.0,5294.0 6724.0,5294.0 M 6659.0,5295.0 C 6659.0,5295.0 6659.0,5295.0 6659.0,5295.0 M 6656.0,5271.0 C 6656.0,5271.0 6656.0,5271.0 6656.0,5271.0 M 6738.0,5274.0 C 6738.0,5274.0 6738.0,5274.0 6738.0,5274.0 M 6825.0,5292.0 C 6825.0,5292.0 6825.0,5292.0 6825.0,5292.0 M 6855.0,5305.0 C 6855.0,5305.0 6855.0,5305.0 6855.0,5305.0 M 6755.0,5313.0 C 6790.6,5309.0 6897.4,5297.0 6933.0,5293.0 M 6923.0,5268.0 C 6923.0,5268.0 6923.0,5268.0 6923.0,5268.0 M 6942.0,5269.0 C 6942.0,5269.0 6942.0,5269.0 6942.0,5269.0 M 6968.0,5294.0 C 6968.0,5294.0 6968.0,5294.0 6968.0,5294.0 M 6933.0,5293.0 C 6671.2,5274.0 5885.8,5217.0 5624.0,5198.0 M 5628.0,5194.0 C 5628.0,5194.0 5628.0,5194.0 5628.0,5194.0 M 5640.0,5206.0 C 5640.0,5206.0 5640.0,5206.0 5640.0,5206.0 M 5624.0,5198.0 C 5648.4,5196.4 5721.6,5191.6 5746.0,5190.0 M 5756.0,5116.0 C 5756.0,5116.0 5756.0,5116.0 5756.0,5116.0 M 5772.0,5162.0 C 5772.0,5162.0 5772.0,5162.0 5772.0,5162.0 M 5746.0,5190.0 C 5676.8,5184.8 5469.2,5169.2 5400.0,5164.0 M 5410.0,5155.0 C 5410.0,5155.0 5410.0,5155.0 5410.0,5155.0 M 5420.0,5149.0 C 5420.0,5149.0 5420.0,5149.0 5420.0,5149.0 M 5425.0,5142.0 C 5425.0,5142.0 5425.0,5142.0 5425.0,5142.0 M 5409.0,5180.0 C 5409.0,5180.0 5409.0,5180.0 5409.0,5180.0 M 5400.0,5164.0 C 5440.0,5163.0 5560.0,5160.0 5600.0,5159.0 M 5655.0,5104.0 C 5655.0,5104.0 5655.0,5104.0 5655.0,5104.0 M 5644.0,5130.0 C 5644.0,5130.0 5644.0,5130.0 5644.0,5130.0 M 5630.0,5138.0 C 5630.0,5138.0 5630.0,5138.0 5630.0,5138.0 M 5615.0,5166.0 C 5615.0,5166.0 5615.0,5166.0 5615.0,5166.0 M 5600.0,5159.0 C 5894.8,5151.4 6779.2,5128.6 7074.0,5121.0 M 7080.0,5079.0 C 7080.0,5079.0 7080.0,5079.0 7080.0,5079.0 M 7090.0,5070.0 C 7090.0,5070.0 7090.0,5070.0 7090.0,5070.0 M 7083.0,5135.0 C 7083.0,5135.0 7083.0,5135.0 7083.0,5135.0 M 7074.0,5121.0 C 6996.2,5110.4 6762.8,5078.6 6685.0,5068.0 M 6585.0,5053.0 C 6585.0,5053.0 6585.0,5053.0 6585.0,5053.0 M 6500.0,5019.0 C 6500.0,5019.0 6500.0,5019.0 6500.0,5019.0 M 6662.0,5035.0 C 6662.0,5035.0 6662.0,5035.0 6662.0,5035.0 M 6986.0,5022.0 C 6986.0,5022.0 6986.0,5022.0 6986.0,5022.0 M 7011.0,5017.0 C 7011.0,5017.0 7011.0,5017.0 7011.0,5017.0 M 6961.0,5070.0 C 6961.0,5070.0 6961.0,5070.0 6961.0,5070.0 M 6685.0,5068.0 C 6504.0,5039.4 5961.0,4953.6 5780.0,4925.0 M 5785.0,4920.0 C 5785.0,4920.0 5785.0,4920.0 5785.0,4920.0 M 5790.0,4925.0 C 5790.0,4925.0 5790.0,4925.0 5790.0,4925.0 M 5785.0,4930.0 C 5785.0,4930.0 5785.0,4930.0 5785.0,4930.0 M 5780.0,4925.0 C 5732.0,4921.0 5588.0,4909.0 5540.0,4905.0 M 5545.0,4900.0 C 5545.0,4900.0 5545.0,4900.0 5545.0,4900.0 M 5550.0,4905.0 C 5550.0,4905.0 5550.0,4905.0 5550.0,4905.0 M 5545.0,4910.0 C 5545.0,4910.0 5545.0,4910.0 5545.0,4910.0 M 5540.0,4905.0 C 5548.0,4903.2 5572.0,4897.8 5580.0,4896.0 M 5590.0,4875.0 C 5590.0,4875.0 5590.0,4875.0 5590.0,4875.0 M 5600.0,4884.0 C 5600.0,4884.0 5600.0,4884.0 5600.0,4884.0 M 5590.0,4905.0 C 5590.0,4905.0 5590.0,4905.0 5590.0,4905.0 M 5580.0,4896.0 C 5575.2,4892.2 5560.8,4880.8 5556.0,4877.0 M 5568.0,4865.0 C 5568.0,4865.0 5568.0,4865.0 5568.0,4865.0 M 5561.0,4883.0 C 5561.0,4883.0 5561.0,4883.0 5561.0,4883.0 M 5556.0,4877.0 C 5550.8,4876.6 5535.2,4875.4 5530.0,4875.0 M 5535.0,4870.0 C 5535.0,4870.0 5535.0,4870.0 5535.0,4870.0 M 5540.0,4875.0 C 5540.0,4875.0 5540.0,4875.0 5540.0,4875.0 M 5535.0,4880.0 C 5535.0,4880.0 5535.0,4880.0 5535.0,4880.0 M 5530.0,4875.0 C 5544.8,4871.6 5589.2,4861.4 5604.0,4858.0 M 5608.0,4854.0 C 5608.0,4854.0 5608.0,4854.0 5608.0,4854.0 M 5624.0,4842.0 C 5624.0,4842.0 5624.0,4842.0 5624.0,4842.0 M 5655.0,4800.0 C 5655.0,4800.0 5655.0,4800.0 5655.0,4800.0 M 5680.0,4777.0 C 5680.0,4777.0 5680.0,4777.0 5680.0,4777.0 M 5680.0,4800.0 C 5680.0,4800.0 5680.0,4800.0 5680.0,4800.0 M 5695.0,4804.0 C 5695.0,4804.0 5695.0,4804.0 5695.0,4804.0 M 5710.0,4825.0 C 5710.0,4825.0 5710.0,4825.0 5710.0,4825.0 M 5701.0,4851.0 C 5701.0,4851.0 5701.0,4851.0 5701.0,4851.0 M 5676.0,4849.0 C 5676.0,4849.0 5676.0,4849.0 5676.0,4849.0 M 5645.0,4856.0 C 5645.0,4856.0 5645.0,4856.0 5645.0,4856.0 M 5635.0,4860.0 C 5635.0,4860.0 5635.0,4860.0 5635.0,4860.0 M 5626.0,4870.0 C 5626.0,4870.0 5626.0,4870.0 5626.0,4870.0 M 5604.0,4858.0 C 5591.4,4856.4 5553.6,4851.6 5541.0,4850.0 M 5550.0,4815.0 C 5550.0,4815.0 5550.0,4815.0 5550.0,4815.0 M 5559.0,4810.0 C 5559.0,4810.0 5559.0,4810.0 5559.0,4810.0 M 5550.0,4845.0 C 5550.0,4845.0 5550.0,4845.0 5550.0,4845.0 M 5541.0,4850.0 C 5551.2,4836.6 5581.8,4796.4 5592.0,4783.0 M 5627.0,4715.0 C 5627.0,4715.0 5627.0,4715.0 5627.0,4715.0 M 5636.0,4692.0 C 5636.0,4692.0 5636.0,4692.0 5636.0,4692.0 M 5644.0,4686.0 C 5644.0,4686.0 5644.0,4686.0 5644.0,4686.0 M 5660.0,4681.0 C 5660.0,4681.0 5660.0,4681.0 5660.0,4681.0 M 5649.0,4670.0 C 5649.0,4670.0 5649.0,4670.0 5649.0,4670.0 M 5645.0,4660.0 C 5645.0,4660.0 5645.0,4660.0 5645.0,4660.0 M 5668.0,4662.0 C 5668.0,4662.0 5668.0,4662.0 5668.0,4662.0 M 5678.0,4660.0 C 5678.0,4660.0 5678.0,4660.0 5678.0,4660.0 M 5686.0,4621.0 C 5686.0,4621.0 5686.0,4621.0 5686.0,4621.0 M 5688.0,4583.0 C 5688.0,4583.0 5688.0,4583.0 5688.0,4583.0 M 5686.0,4569.0 C 5686.0,4569.0 5686.0,4569.0 5686.0,4569.0 M 5743.0,4581.0 C 5743.0,4581.0 5743.0,4581.0 5743.0,4581.0 M 5737.0,4597.0 C 5737.0,4597.0 5737.0,4597.0 5737.0,4597.0 M 5722.0,4618.0 C 5722.0,4618.0 5722.0,4618.0 5722.0,4618.0 M 5702.0,4640.0 C 5702.0,4640.0 5702.0,4640.0 5702.0,4640.0 M 5700.0,4649.0 C 5700.0,4649.0 5700.0,4649.0 5700.0,4649.0 M 5720.0,4655.0 C 5720.0,4655.0 5720.0,4655.0 5720.0,4655.0 M 5718.0,4714.0 C 5718.0,4714.0 5718.0,4714.0 5718.0,4714.0 M 5660.0,4765.0 C 5660.0,4765.0 5660.0,4765.0 5660.0,4765.0 M 5650.0,4769.0 C 5650.0,4769.0 5650.0,4769.0 5650.0,4769.0 M 5639.0,4780.0 C 5639.0,4780.0 5639.0,4780.0 5639.0,4780.0 M 5640.0,4765.0 C 5640.0,4765.0 5640.0,4765.0 5640.0,4765.0 M 5645.0,4733.0 C 5645.0,4733.0 5645.0,4733.0 5645.0,4733.0 M 5621.0,4765.0 C 5621.0,4765.0 5621.0,4765.0 5621.0,4765.0 M 5581.0,4840.0 C 5581.0,4840.0 5581.0,4840.0 5581.0,4840.0 M 5592.0,4783.0 C 5615.6,4766.2 5686.4,4715.8 5710.0,4699.0 M 5699.0,4680.0 C 5699.0,4680.0 5699.0,4680.0 5699.0,4680.0 M 5684.0,4695.0 C 5684.0,4695.0 5684.0,4695.0 5684.0,4695.0 M 5679.0,4710.0 C 5679.0,4710.0 5679.0,4710.0 5679.0,4710.0 M 5675.0,4720.0 C 5675.0,4720.0 5675.0,4720.0 5675.0,4720.0 M 5710.0,4699.0 C 5684.0,4704.2 5606.0,4719.8 5580.0,4725.0 M 5585.0,4720.0 C 5585.0,4720.0 5585.0,4720.0 5585.0,4720.0 M 5590.0,4725.0 C 5590.0,4725.0 5590.0,4725.0 5590.0,4725.0 M 5585.0,4730.0 C 5585.0,4730.0 5585.0,4730.0 5585.0,4730.0 M 5580.0,4725.0 C 5612.0,4709.0 5708.0,4661.0 5740.0,4645.0 M 5745.0,4640.0 C 5745.0,4640.0 5745.0,4640.0 5745.0,4640.0 M 5750.0,4645.0 C 5750.0,4645.0 5750.0,4645.0 5750.0,4645.0 M 5745.0,4650.0 C 5745.0,4650.0 5745.0,4650.0 5745.0,4650.0 M 5740.0,4645.0 C 5737.6,4581.6 5730.4,4391.4 5728.0,4328.0 M 5684.0,4251.0 C 5684.0,4251.0 5684.0,4251.0 5684.0,4251.0 M 5621.0,4147.0 C 5621.0,4147.0 5621.0,4147.0 5621.0,4147.0 M 5626.0,4120.0 C 5626.0,4120.0 5626.0,4120.0 5626.0,4120.0 M 5647.0,4140.0 C 5647.0,4140.0 5647.0,4140.0 5647.0,4140.0 M 5660.0,4160.0 C 5660.0,4160.0 5660.0,4160.0 5660.0,4160.0 M 5680.0,4190.0 C 5680.0,4190.0 5680.0,4190.0 5680.0,4190.0 M 5699.0,4220.0 C 5699.0,4220.0 5699.0,4220.0 5699.0,4220.0 M 5748.0,4345.0 C 5748.0,4345.0 5748.0,4345.0 5748.0,4345.0 M 5728.0,4328.0 C 5700.4,4283.4 5617.6,4149.6 5590.0,4105.0 M 5573.0,4064.0 C 5573.0,4064.0 5573.0,4064.0 5573.0,4064.0 M 5558.0,4010.0 C 5558.0,4010.0 5558.0,4010.0 5558.0,4010.0 M 5542.0,3969.0 C 5542.0,3969.0 5542.0,3969.0 5542.0,3969.0 M 5553.0,3965.0 C 5553.0,3965.0 5553.0,3965.0 5553.0,3965.0 M 5581.0,3963.0 C 5581.0,3963.0 5581.0,3963.0 5581.0,3963.0 M 5579.0,3840.0 C 5579.0,3840.0 5579.0,3840.0 5579.0,3840.0 M 5572.0,3833.0 C 5572.0,3833.0 5572.0,3833.0 5572.0,3833.0 M 5562.0,3797.0 C 5562.0,3797.0 5562.0,3797.0 5562.0,3797.0 M 5612.0,3890.0 C 5612.0,3890.0 5612.0,3890.0 5612.0,3890.0 M 5620.0,3905.0 C 5620.0,3905.0 5620.0,3905.0 5620.0,3905.0 M 5611.0,3920.0 C 5611.0,3920.0 5611.0,3920.0 5611.0,3920.0 M 5607.0,3940.0 C 5607.0,3940.0 5607.0,3940.0 5607.0,3940.0 M 5658.0,3961.0 C 5658.0,3961.0 5658.0,3961.0 5658.0,3961.0 M 5794.0,3761.0 C 5794.0,3761.0 5794.0,3761.0 5794.0,3761.0 M 5740.0,3864.0 C 5740.0,3864.0 5740.0,3864.0 5740.0,3864.0 M 5670.0,3986.0 C 5670.0,3986.0 5670.0,3986.0 5670.0,3986.0 M 5646.0,4023.0 C 5646.0,4023.0 5646.0,4023.0 5646.0,4023.0 M 5615.0,4083.0 C 5615.0,4083.0 5615.0,4083.0 5615.0,4083.0 M 5590.0,4105.0 C 5598.8,4084.2 5625.2,4021.8 5634.0,4001.0 M 5592.0,3981.0 C 5592.0,3981.0 5592.0,3981.0 5592.0,3981.0 M 5588.0,3987.0 C 5588.0,3987.0 5588.0,3987.0 5588.0,3987.0 M 5594.0,4001.0 C 5594.0,4001.0 5594.0,4001.0 5594.0,4001.0 M 5609.0,4010.0 C 5609.0,4010.0 5609.0,4010.0 5609.0,4010.0 M 5634.0,4001.0 C 5604.2,4011.8 5514.8,4044.2 5485.0,4055.0 M 5455.0,4030.0 C 5455.0,4030.0 5455.0,4030.0 5455.0,4030.0 M 5505.0,4055.0 C 5505.0,4055.0 5505.0,4055.0 5505.0,4055.0 M 5535.0,4080.0 C 5535.0,4080.0 5535.0,4080.0 5535.0,4080.0 M 5485.0,4055.0 C 5528.0,4059.0 5657.0,4071.0 5700.0,4075.0 M 5705.0,4070.0 C 5705.0,4070.0 5705.0,4070.0 5705.0,4070.0 M 5710.0,4075.0 C 5710.0,4075.0 5710.0,4075.0 5710.0,4075.0 M 5705.0,4080.0 C 5705.0,4080.0 5705.0,4080.0 5705.0,4080.0 M 5700.0,4075.0 C 5694.0,4066.0 5676.0,4039.0 5670.0,4030.0 M 5681.0,4020.0 C 5681.0,4020.0 5681.0,4020.0 5681.0,4020.0 M 5685.0,4030.0 C 5685.0,4030.0 5685.0,4030.0 5685.0,4030.0 M 5674.0,4040.0 C 5674.0,4040.0 5674.0,4040.0 5674.0,4040.0 M 5670.0,4030.0 C 5920.0,4028.0 6670.0,4022.0 6920.0,4020.0 M 6931.0,4010.0 C 6931.0,4010.0 6931.0,4010.0 6931.0,4010.0 M 6935.0,4020.0 C 6935.0,4020.0 6935.0,4020.0 6935.0,4020.0 M 6924.0,4030.0 C 6924.0,4030.0 6924.0,4030.0 6924.0,4030.0 M 6920.0,4020.0 C 6672.0,4017.0 5928.0,4008.0 5680.0,4005.0 M 5685.0,4000.0 C 5685.0,4000.0 5685.0,4000.0 5685.0,4000.0 M 5690.0,4005.0 C 5690.0,4005.0 5690.0,4005.0 5690.0,4005.0 M 5685.0,4010.0 C 5685.0,4010.0 5685.0,4010.0 5685.0,4010.0 M 5680.0,4005.0 C 5935.6,4004.6 6702.4,4003.4 6958.0,4003.0 M 6977.0,4004.0 C 6977.0,4004.0 6977.0,4004.0 6977.0,4004.0 M 6964.0,4009.0 C 6964.0,4009.0 6964.0,4009.0 6964.0,4009.0 M 6958.0,4003.0 C 6649.2,3997.2 5722.8,3979.8 5414.0,3974.0 M 5399.0,3942.0 C 5399.0,3942.0 5399.0,3942.0 5399.0,3942.0 M 5405.0,3929.0 C 5405.0,3929.0 5405.0,3929.0 5405.0,3929.0 M 5415.0,3927.0 C 5415.0,3927.0 5415.0,3927.0 5415.0,3927.0 M 5418.0,3941.0 C 5418.0,3941.0 5418.0,3941.0 5418.0,3941.0 M 5443.0,3939.0 C 5443.0,3939.0 5443.0,3939.0 5443.0,3939.0 M 5458.0,3935.0 C 5458.0,3935.0 5458.0,3935.0 5458.0,3935.0 M 5459.0,3954.0 C 5459.0,3954.0 5459.0,3954.0 5459.0,3954.0 M 5455.0,3983.0 C 5455.0,3983.0 5455.0,3983.0 5455.0,3983.0 M 5414.0,3974.0 C 5432.0,3976.8 5486.0,3985.2 5504.0,3988.0 M 5508.0,3984.0 C 5508.0,3984.0 5508.0,3984.0 5508.0,3984.0 M 5520.0,3996.0 C 5520.0,3996.0 5520.0,3996.0 5520.0,3996.0 M 5504.0,3988.0 C 5511.2,3989.4 5532.8,3993.6 5540.0,3995.0 M 5545.0,3990.0 C 5545.0,3990.0 5545.0,3990.0 5545.0,3990.0 M 5550.0,3995.0 C 5550.0,3995.0 5550.0,3995.0 5550.0,3995.0 M 5545.0,4000.0 C 5545.0,4000.0 5545.0,4000.0 5545.0,4000.0 M 5540.0,3995.0 C 5590.8,3990.8 5743.2,3978.2 5794.0,3974.0 M 5818.0,3951.0 C 5818.0,3951.0 5818.0,3951.0 5818.0,3951.0 M 5809.0,4000.0 C 5809.0,4000.0 5809.0,4000.0 5809.0,4000.0 M 5794.0,3974.0 C 5994.8,3966.2 6597.2,3942.8 6798.0,3935.0 M 6764.0,3680.0 C 6764.0,3680.0 6764.0,3680.0 6764.0,3680.0 M 6769.0,3670.0 C 6769.0,3670.0 6769.0,3670.0 6769.0,3670.0 M 6808.0,3915.0 C 6808.0,3915.0 6808.0,3915.0 6808.0,3915.0 M 6805.0,4005.0 C 6805.0,4005.0 6805.0,4005.0 6805.0,4005.0 M 6798.0,3935.0 C 6818.4,3947.0 6879.6,3983.0 6900.0,3995.0 M 6905.0,3990.0 C 6905.0,3990.0 6905.0,3990.0 6905.0,3990.0 M 6910.0,3995.0 C 6910.0,3995.0 6910.0,3995.0 6910.0,3995.0 M 6905.0,4000.0 C 6905.0,4000.0 6905.0,4000.0 6905.0,4000.0 M 6900.0,3995.0 C 6906.0,3994.0 6924.0,3991.0 6930.0,3990.0 M 6937.0,3983.0 C 6937.0,3983.0 6937.0,3983.0 6937.0,3983.0 M 6937.0,3997.0 C 6937.0,3997.0 6937.0,3997.0 6937.0,3997.0 M 6930.0,3990.0 C 6683.0,3988.2 5942.0,3982.8 5695.0,3981.0 M 5710.0,3960.0 C 5710.0,3960.0 5710.0,3960.0 5710.0,3960.0 M 5730.0,3935.0 C 5730.0,3935.0 5730.0,3935.0 5730.0,3935.0 M 5750.0,3915.0 C 5750.0,3915.0 5750.0,3915.0 5750.0,3915.0 M 5770.0,3894.0 C 5770.0,3894.0 5770.0,3894.0 5770.0,3894.0 M 5779.0,3884.0 C 5779.0,3884.0 5779.0,3884.0 5779.0,3884.0 M 5802.0,3860.0 C 5802.0,3860.0 5802.0,3860.0 5802.0,3860.0 M 5821.0,3830.0 C 5821.0,3830.0 5821.0,3830.0 5821.0,3830.0 M 5856.0,3803.0 C 5856.0,3803.0 5856.0,3803.0 5856.0,3803.0 M 5890.0,3774.0 C 5890.0,3774.0 5890.0,3774.0 5890.0,3774.0 M 5923.0,3762.0 C 5923.0,3762.0 5923.0,3762.0 5923.0,3762.0 M 5909.0,3795.0 C 5909.0,3795.0 5909.0,3795.0 5909.0,3795.0 M 5832.0,3875.0 C 5832.0,3875.0 5832.0,3875.0 5832.0,3875.0 M 5798.0,3910.0 C 5798.0,3910.0 5798.0,3910.0 5798.0,3910.0 M 5749.0,3950.0 C 5749.0,3950.0 5749.0,3950.0 5749.0,3950.0 M 5695.0,3981.0 C 5938.0,3978.8 6667.0,3972.2 6910.0,3970.0 M 6925.0,3960.0 C 6925.0,3960.0 6925.0,3960.0 6925.0,3960.0 M 6940.0,3964.0 C 6940.0,3964.0 6940.0,3964.0 6940.0,3964.0 M 6925.0,3974.0 C 6925.0,3974.0 6925.0,3974.0 6925.0,3974.0 M 6910.0,3970.0 C 6626.0,3969.0 5774.0,3966.0 5490.0,3965.0 M 5495.0,3960.0 C 5495.0,3960.0 5495.0,3960.0 5495.0,3960.0 M 5500.0,3965.0 C 5500.0,3965.0 5500.0,3965.0 5500.0,3965.0 M 5495.0,3970.0 C 5495.0,3970.0 5495.0,3970.0 5495.0,3970.0 M 5490.0,3965.0 C 5490.0,3960.4 5490.0,3946.6 5490.0,3942.0 M 5383.0,3890.0 C 5383.0,3890.0 5383.0,3890.0 5383.0,3890.0 M 5346.0,3877.0 C 5346.0,3877.0 5346.0,3877.0 5346.0,3877.0 M 5368.0,3864.0 C 5368.0,3864.0 5368.0,3864.0 5368.0,3864.0 M 5402.0,3874.0 C 5402.0,3874.0 5402.0,3874.0 5402.0,3874.0 M 5413.0,3877.0 C 5413.0,3877.0 5413.0,3877.0 5413.0,3877.0 M 5500.0,3945.0 C 5500.0,3945.0 5500.0,3945.0 5500.0,3945.0 M 5490.0,3942.0 C 5431.0,3936.2 5254.0,3918.8 5195.0,3913.0 M 4981.0,3768.0 C 4981.0,3768.0 4981.0,3768.0 4981.0,3768.0 M 5013.0,3783.0 C 5013.0,3783.0 5013.0,3783.0 5013.0,3783.0 M 5069.0,3820.0 C 5069.0,3820.0 5069.0,3820.0 5069.0,3820.0 M 5080.0,3828.0 C 5080.0,3828.0 5080.0,3828.0 5080.0,3828.0 M 5099.0,3845.0 C 5099.0,3845.0 5099.0,3845.0 5099.0,3845.0 M 5250.0,3936.0 C 5250.0,3936.0 5250.0,3936.0 5250.0,3936.0 M 5195.0,3913.0 C 5347.4,3915.6 5804.6,3923.4 5957.0,3926.0 M 6033.0,3706.0 C 6033.0,3706.0 6033.0,3706.0 6033.0,3706.0 M 6040.0,3695.0 C 6040.0,3695.0 6040.0,3695.0 6040.0,3695.0 M 6046.0,3683.0 C 6046.0,3683.0 6046.0,3683.0 6046.0,3683.0 M 6110.0,3625.0 C 6110.0,3625.0 6110.0,3625.0 6110.0,3625.0 M 6134.0,3591.0 C 6134.0,3591.0 6134.0,3591.0 6134.0,3591.0 M 6153.0,3553.0 C 6153.0,3553.0 6153.0,3553.0 6153.0,3553.0 M 6169.0,3551.0 C 6169.0,3551.0 6169.0,3551.0 6169.0,3551.0 M 6190.0,3579.0 C 6190.0,3579.0 6190.0,3579.0 6190.0,3579.0 M 6081.0,3704.0 C 6081.0,3704.0 6081.0,3704.0 6081.0,3704.0 M 6004.0,3858.0 C 6004.0,3858.0 6004.0,3858.0 6004.0,3858.0 M 5957.0,3926.0 C 6169.8,3926.0 6808.2,3926.0 7021.0,3926.0 M 7013.0,3863.0 C 7013.0,3863.0 7013.0,3863.0 7013.0,3863.0 M 7041.0,3923.0 C 7041.0,3923.0 7041.0,3923.0 7041.0,3923.0 M 7021.0,3926.0 C 7022.2,3919.4 7025.8,3899.6 7027.0,3893.0 M 7020.0,3900.0 C 7020.0,3900.0 7020.0,3900.0 7020.0,3900.0 M 7027.0,3907.0 C 7027.0,3907.0 7027.0,3907.0 7027.0,3907.0 M 7027.0,3893.0 C 6692.6,3896.4 5689.4,3906.6 5355.0,3910.0 M 5371.0,3905.0 C 5371.0,3905.0 5371.0,3905.0 5371.0,3905.0 M 5364.0,3920.0 C 5364.0,3920.0 5364.0,3920.0 5364.0,3920.0 M 5355.0,3910.0 C 5347.0,3908.0 5323.0,3902.0 5315.0,3900.0 M 5319.0,3890.0 C 5319.0,3890.0 5319.0,3890.0 5319.0,3890.0 M 5330.0,3900.0 C 5330.0,3900.0 5330.0,3900.0 5330.0,3900.0 M 5326.0,3910.0 C 5326.0,3910.0 5326.0,3910.0 5326.0,3910.0 M 5315.0,3900.0 C 5620.0,3901.0 6535.0,3904.0 6840.0,3905.0 M 6845.0,3900.0 C 6845.0,3900.0 6845.0,3900.0 6845.0,3900.0 M 6850.0,3905.0 C 6850.0,3905.0 6850.0,3905.0 6850.0,3905.0 M 6845.0,3910.0 C 6845.0,3910.0 6845.0,3910.0 6845.0,3910.0 M 6840.0,3905.0 C 6888.8,3895.0 7035.2,3865.0 7084.0,3855.0 M 7119.0,3806.0 C 7119.0,3806.0 7119.0,3806.0 7119.0,3806.0 M 7134.0,3779.0 C 7134.0,3779.0 7134.0,3779.0 7134.0,3779.0 M 7139.0,3770.0 C 7139.0,3770.0 7139.0,3770.0 7139.0,3770.0 M 7148.0,3763.0 C 7148.0,3763.0 7148.0,3763.0 7148.0,3763.0 M 7153.0,3740.0 C 7153.0,3740.0 7153.0,3740.0 7153.0,3740.0 M 7163.0,3619.0 C 7163.0,3619.0 7163.0,3619.0 7163.0,3619.0 M 7138.0,3601.0 C 7138.0,3601.0 7138.0,3601.0 7138.0,3601.0 M 7113.0,3607.0 C 7113.0,3607.0 7113.0,3607.0 7113.0,3607.0 M 7130.0,3595.0 C 7130.0,3595.0 7130.0,3595.0 7130.0,3595.0 M 7139.0,3574.0 C 7139.0,3574.0 7139.0,3574.0 7139.0,3574.0 M 7133.0,3554.0 C 7133.0,3554.0 7133.0,3554.0 7133.0,3554.0 M 7175.0,3708.0 C 7175.0,3708.0 7175.0,3708.0 7175.0,3708.0 M 7132.0,3808.0 C 7132.0,3808.0 7132.0,3808.0 7132.0,3808.0 M 7082.0,3866.0 C 7082.0,3866.0 7082.0,3866.0 7082.0,3866.0 M 7084.0,3855.0 C 7113.2,3859.0 7200.8,3871.0 7230.0,3875.0 M 7235.0,3870.0 C 7235.0,3870.0 7235.0,3870.0 7235.0,3870.0 M 7240.0,3875.0 C 7240.0,3875.0 7240.0,3875.0 7240.0,3875.0 M 7235.0,3880.0 C 7235.0,3880.0 7235.0,3880.0 7235.0,3880.0 M 7230.0,3875.0 C 6820.4,3864.0 5591.6,3831.0 5182.0,3820.0 M 4895.0,3621.0 C 4895.0,3621.0 4895.0,3621.0 4895.0,3621.0 M 4565.0,2762.0 C 4565.0,2762.0 4565.0,2762.0 4565.0,2762.0 M 4693.78,3226.37 C 4693.78,3226.37 4693.78,3226.37 4693.78,3226.37 M 4880.0,3589.0 C 4880.0,3589.0 4880.0,3589.0 4880.0,3589.0 M 4903.0,3608.0 C 4903.0,3608.0 4903.0,3608.0 4903.0,3608.0 M 5005.0,3689.0 C 5005.0,3689.0 5005.0,3689.0 5005.0,3689.0 M 5130.0,3776.0 C 5130.0,3776.0 5130.0,3776.0 5130.0,3776.0 M 5285.0,3860.0 C 5285.0,3860.0 5285.0,3860.0 5285.0,3860.0 M 5182.0,3820.0 C 5365.6,3824.6 5916.4,3838.4 6100.0,3843.0 M 6110.0,3820.0 C 6110.0,3820.0 6110.0,3820.0 6110.0,3820.0 M 6110.0,3850.0 C 6110.0,3850.0 6110.0,3850.0 6110.0,3850.0 M 6100.0,3843.0 C 6250.0,3845.4 6700.0,3852.6 6850.0,3855.0 M 6855.0,3850.0 C 6855.0,3850.0 6855.0,3850.0 6855.0,3850.0 M 6860.0,3855.0 C 6860.0,3855.0 6860.0,3855.0 6860.0,3855.0 M 6855.0,3860.0 C 6855.0,3860.0 6855.0,3860.0 6855.0,3860.0 M 6850.0,3855.0 C 6548.0,3853.0 5642.0,3847.0 5340.0,3845.0 M 5345.0,3840.0 C 5345.0,3840.0 5345.0,3840.0 5345.0,3840.0 M 5350.0,3845.0 C 5350.0,3845.0 5350.0,3845.0 5350.0,3845.0 M 5345.0,3850.0 C 5345.0,3850.0 5345.0,3850.0 5345.0,3850.0 M 5340.0,3845.0 C 5352.0,3845.0 5388.0,3845.0 5400.0,3845.0 M 5405.0,3840.0 C 5405.0,3840.0 5405.0,3840.0 5405.0,3840.0 M 5410.0,3845.0 C 5410.0,3845.0 5410.0,3845.0 5410.0,3845.0 M 5405.0,3850.0 C 5405.0,3850.0 5405.0,3850.0 5405.0,3850.0 M 5400.0,3845.0 C 5736.0,3839.0 6744.0,3821.0 7080.0,3815.0 M 7085.0,3810.0 C 7085.0,3810.0 7085.0,3810.0 7085.0,3810.0 M 7090.0,3815.0 C 7090.0,3815.0 7090.0,3815.0 7090.0,3815.0 M 7085.0,3820.0 C 7085.0,3820.0 7085.0,3820.0 7085.0,3820.0 M 7080.0,3815.0 C 6730.0,3808.2 5680.0,3787.8 5330.0,3781.0 M 5342.0,3754.0 C 5342.0,3754.0 5342.0,3754.0 5342.0,3754.0 M 5346.0,3758.0 C 5346.0,3758.0 5346.0,3758.0 5346.0,3758.0 M 5350.0,3775.0 C 5350.0,3775.0 5350.0,3775.0 5350.0,3775.0 M 5339.0,3800.0 C 5339.0,3800.0 5339.0,3800.0 5339.0,3800.0 M 5330.0,3781.0 C 5682.0,3783.8 6738.0,3792.2 7090.0,3795.0 M 7095.0,3790.0 C 7095.0,3790.0 7095.0,3790.0 7095.0,3790.0 M 7100.0,3795.0 C 7100.0,3795.0 7100.0,3795.0 7100.0,3795.0 M 7095.0,3800.0 C 7095.0,3800.0 7095.0,3800.0 7095.0,3800.0 M 7090.0,3795.0 C 7082.2,3790.4 7058.8,3776.6 7051.0,3772.0 M 7038.0,3756.0 C 7038.0,3756.0 7038.0,3756.0 7038.0,3756.0 M 7060.0,3723.0 C 7060.0,3723.0 7060.0,3723.0 7060.0,3723.0 M 7106.0,3681.0 C 7106.0,3681.0 7106.0,3681.0 7106.0,3681.0 M 7118.0,3748.0 C 7118.0,3748.0 7118.0,3748.0 7118.0,3748.0 M 7079.0,3743.0 C 7079.0,3743.0 7079.0,3743.0 7079.0,3743.0 M 7065.0,3760.0 C 7065.0,3760.0 7065.0,3760.0 7065.0,3760.0 M 7051.0,3772.0 C 7110.8,3768.6 7290.2,3758.4 7350.0,3755.0 M 7355.0,3750.0 C 7355.0,3750.0 7355.0,3750.0 7355.0,3750.0 M 7360.0,3755.0 C 7360.0,3755.0 7360.0,3755.0 7360.0,3755.0 M 7355.0,3760.0 C 7355.0,3760.0 7355.0,3760.0 7355.0,3760.0 M 7350.0,3755.0 C 7102.0,3753.0 6358.0,3747.0 6110.0,3745.0 M 6115.0,3740.0 C 6115.0,3740.0 6115.0,3740.0 6115.0,3740.0 M 6120.0,3745.0 C 6120.0,3745.0 6120.0,3745.0 6120.0,3745.0 M 6115.0,3750.0 C 6115.0,3750.0 6115.0,3750.0 6115.0,3750.0 M 6110.0,3745.0 C 5874.8,3741.6 5169.2,3731.4 4934.0,3728.0 M 4938.0,3724.0 C 4938.0,3724.0 4938.0,3724.0 4938.0,3724.0 M 4946.0,3740.0 C 4946.0,3740.0 4946.0,3740.0 4946.0,3740.0 M 4934.0,3728.0 C 5139.2,3729.4 5754.8,3733.6 5960.0,3735.0 M 5965.0,3730.0 C 5965.0,3730.0 5965.0,3730.0 5965.0,3730.0 M 5970.0,3735.0 C 5970.0,3735.0 5970.0,3735.0 5970.0,3735.0 M 5965.0,3740.0 C 5965.0,3740.0 5965.0,3740.0 5965.0,3740.0 M 5960.0,3735.0 C 5964.0,3735.0 5976.0,3735.0 5980.0,3735.0 M 5985.0,3730.0 C 5985.0,3730.0 5985.0,3730.0 5985.0,3730.0 M 5990.0,3735.0 C 5990.0,3735.0 5990.0,3735.0 5990.0,3735.0 M 5985.0,3740.0 C 5985.0,3740.0 5985.0,3740.0 5985.0,3740.0 M 5980.0,3735.0 C 6184.0,3735.0 6796.0,3735.0 7000.0,3735.0 M 7005.0,3730.0 C 7005.0,3730.0 7005.0,3730.0 7005.0,3730.0 M 7010.0,3735.0 C 7010.0,3735.0 7010.0,3735.0 7010.0,3735.0 M 7005.0,3740.0 C 7005.0,3740.0 7005.0,3740.0 7005.0,3740.0 M 7000.0,3735.0 C 7012.0,3723.0 7048.0,3687.0 7060.0,3675.0 M 7065.0,3670.0 C 7065.0,3670.0 7065.0,3670.0 7065.0,3670.0 M 7070.0,3675.0 C 7070.0,3675.0 7070.0,3675.0 7070.0,3675.0 M 7065.0,3680.0 C 7065.0,3680.0 7065.0,3680.0 7065.0,3680.0 M 7060.0,3675.0 C 6864.0,3667.0 6276.0,3643.0 6080.0,3635.0 M 6085.0,3630.0 C 6085.0,3630.0 6085.0,3630.0 6085.0,3630.0 M 6090.0,3635.0 C 6090.0,3635.0 6090.0,3635.0 6090.0,3635.0 M 6085.0,3640.0 C 6085.0,3640.0 6085.0,3640.0 6085.0,3640.0 M 6080.0,3635.0 C 6410.0,3631.0 7400.0,3619.0 7730.0,3615.0 M 7735.0,3610.0 C 7735.0,3610.0 7735.0,3610.0 7735.0,3610.0 M 7740.0,3615.0 C 7740.0,3615.0 7740.0,3615.0 7740.0,3615.0 M 7735.0,3620.0 C 7735.0,3620.0 7735.0,3620.0 7735.0,3620.0 M 7730.0,3615.0 C 7604.0,3607.0 7226.0,3583.0 7100.0,3575.0 M 7105.0,3570.0 C 7105.0,3570.0 7105.0,3570.0 7105.0,3570.0 M 7110.0,3575.0 C 7110.0,3575.0 7110.0,3575.0 7110.0,3575.0 M 7105.0,3580.0 C 7105.0,3580.0 7105.0,3580.0 7105.0,3580.0 M 7100.0,3575.0 C 7240.0,3567.0 7660.0,3543.0 7800.0,3535.0 M 7805.0,3530.0 C 7805.0,3530.0 7805.0,3530.0 7805.0,3530.0 M 7810.0,3535.0 C 7810.0,3535.0 7810.0,3535.0 7810.0,3535.0 M 7805.0,3540.0 C 7805.0,3540.0 7805.0,3540.0 7805.0,3540.0 M 7800.0,3535.0 C 7656.0,3524.0 7224.0,3491.0 7080.0,3480.0 M 7087.0,3473.0 C 7087.0,3473.0 7087.0,3473.0 7087.0,3473.0 M 7087.0,3487.0 C 7087.0,3487.0 7087.0,3487.0 7087.0,3487.0 M 7080.0,3480.0 C 7082.0,3473.0 7088.0,3452.0 7090.0,3445.0 M 7095.0,3440.0 C 7095.0,3440.0 7095.0,3440.0 7095.0,3440.0 M 7100.0,3445.0 C 7100.0,3445.0 7100.0,3445.0 7100.0,3445.0 M 7095.0,3450.0 C 7095.0,3450.0 7095.0,3450.0 7095.0,3450.0 M 7090.0,3445.0 C 7114.0,3427.0 7186.0,3373.0 7210.0,3355.0 M 7215.0,3350.0 C 7215.0,3350.0 7215.0,3350.0 7215.0,3350.0 M 7220.0,3355.0 C 7220.0,3355.0 7220.0,3355.0 7220.0,3355.0 M 7215.0,3360.0 C 7215.0,3360.0 7215.0,3360.0 7215.0,3360.0 M 7210.0,3355.0 C 7212.0,3349.0 7218.0,3331.0 7220.0,3325.0 M 7225.0,3320.0 C 7225.0,3320.0 7225.0,3320.0 7225.0,3320.0 M 7230.0,3325.0 C 7230.0,3325.0 7230.0,3325.0 7230.0,3325.0 M 7225.0,3330.0 C 7225.0,3330.0 7225.0,3330.0 7225.0,3330.0 M 7220.0,3325.0 C 7188.0,3318.0 7092.0,3297.0 7060.0,3290.0 M 7067.0,3283.0 C 7067.0,3283.0 7067.0,3283.0 7067.0,3283.0 M 7067.0,3297.0 C 7067.0,3297.0 7067.0,3297.0 7067.0,3297.0 M 7060.0,3290.0 C 7072.6,3289.0 7110.4,3286.0 7123.0,3285.0 M 7122.0,3264.0 C 7122.0,3264.0 7122.0,3264.0 7122.0,3264.0 M 7133.0,3280.0 C 7133.0,3280.0 7133.0,3280.0 7133.0,3280.0 M 7123.0,3285.0 C 6948.4,3285.0 6424.6,3285.0 6250.0,3285.0 M 6255.0,3280.0 C 6255.0,3280.0 6255.0,3280.0 6255.0,3280.0 M 6260.0,3285.0 C 6260.0,3285.0 6260.0,3285.0 6260.0,3285.0 M 6255.0,3290.0 C 6255.0,3290.0 6255.0,3290.0 6255.0,3290.0 M 6250.0,3285.0 C 6422.0,3277.0 6938.0,3253.0 7110.0,3245.0 M 7115.0,3240.0 C 7115.0,3240.0 7115.0,3240.0 7115.0,3240.0 M 7120.0,3245.0 C 7120.0,3245.0 7120.0,3245.0 7120.0,3245.0 M 7115.0,3250.0 C 7115.0,3250.0 7115.0,3250.0 7115.0,3250.0 M 7110.0,3245.0 C 7101.2,3240.6 7074.8,3227.4 7066.0,3223.0 M 7071.0,3217.0 C 7071.0,3217.0 7071.0,3217.0 7071.0,3217.0 M 7078.0,3235.0 C 7078.0,3235.0 7078.0,3235.0 7078.0,3235.0 M 7066.0,3223.0 C 7072.8,3221.4 7093.2,3216.6 7100.0,3215.0 M 7105.0,3210.0 C 7105.0,3210.0 7105.0,3210.0 7105.0,3210.0 M 7110.0,3215.0 C 7110.0,3215.0 7110.0,3215.0 7110.0,3215.0 M 7105.0,3220.0 C 7105.0,3220.0 7105.0,3220.0 7105.0,3220.0 M 7100.0,3215.0 C 7099.8,3201.0 7099.2,3159.0 7099.0,3145.0 M 7093.0,3057.0 C 7093.0,3057.0 7093.0,3057.0 7093.0,3057.0 M 7194.0,2880.0 C 7194.0,2880.0 7194.0,2880.0 7194.0,2880.0 M 7175.0,2985.0 C 7175.0,2985.0 7175.0,2985.0 7175.0,2985.0 M 7149.0,3108.0 C 7149.0,3108.0 7149.0,3108.0 7149.0,3108.0 M 7128.0,3186.0 C 7128.0,3186.0 7128.0,3186.0 7128.0,3186.0 M 7099.0,3145.0 C 7035.2,3056.0 6843.8,2789.0 6780.0,2700.0 M 6780.0,2789.0 C 6780.0,2789.0 6780.0,2789.0 6780.0,2789.0 M 6780.0,2700.0 C 6701.0,2772.0 6464.0,2988.0 6385.0,3060.0 M 6385.0,3050.0 C 6385.0,3050.0 6385.0,3050.0 6385.0,3050.0 M 6390.0,3055.0 C 6390.0,3055.0 6390.0,3055.0 6390.0,3055.0 M 6385.0,3060.0 C 6522.0,3058.0 6933.0,3052.0 7070.0,3050.0 M 7077.0,3043.0 C 7077.0,3043.0 7077.0,3043.0 7077.0,3043.0 M 7077.0,3057.0 C 7077.0,3057.0 7077.0,3057.0 7077.0,3057.0 M 7070.0,3050.0 C 6950.6,3048.6 6592.4,3044.4 6473.0,3043.0 M 6487.0,3043.0 C 6487.0,3043.0 6487.0,3043.0 6487.0,3043.0 M 6480.0,3050.0 C 6480.0,3050.0 6480.0,3050.0 6480.0,3050.0 M 6473.0,3043.0 C 6622.4,3043.4 7070.6,3044.6 7220.0,3045.0 M 7225.0,3040.0 C 7225.0,3040.0 7225.0,3040.0 7225.0,3040.0 M 7230.0,3045.0 C 7230.0,3045.0 7230.0,3045.0 7230.0,3045.0 M 7225.0,3050.0 C 7225.0,3050.0 7225.0,3050.0 7225.0,3050.0 M 7220.0,3045.0 C 7100.0,3039.4 6740.0,3022.6 6620.0,3017.0 M 6681.0,2861.0 C 6681.0,2861.0 6681.0,2861.0 6681.0,2861.0 M 6674.0,2851.0 C 6674.0,2851.0 6674.0,2851.0 6674.0,2851.0 M 6662.0,2845.0 C 6662.0,2845.0 6662.0,2845.0 6662.0,2845.0 M 6748.0,2670.0 C 6748.0,2670.0 6748.0,2670.0 6748.0,2670.0 M 6668.0,2968.0 C 6668.0,2968.0 6668.0,2968.0 6668.0,2968.0 M 6634.0,3020.0 C 6634.0,3020.0 6634.0,3020.0 6634.0,3020.0 M 6620.0,3017.0 C 6636.0,2978.6 6684.0,2863.4 6700.0,2825.0 M 6695.0,2820.0 C 6695.0,2820.0 6695.0,2820.0 6695.0,2820.0 M 6690.0,2825.0 C 6690.0,2825.0 6690.0,2825.0 6690.0,2825.0 M 6695.0,2830.0 C 6695.0,2830.0 6695.0,2830.0 6695.0,2830.0 M 6700.0,2825.0 C 6655.4,2852.8 6521.6,2936.2 6477.0,2964.0 M 6522.0,2920.0 C 6522.0,2920.0 6522.0,2920.0 6522.0,2920.0 M 6523.0,2954.0 C 6523.0,2954.0 6523.0,2954.0 6523.0,2954.0 M 6494.0,2965.0 C 6494.0,2965.0 6494.0,2965.0 6494.0,2965.0 M 6477.0,2964.0 C 6475.6,2940.2 6471.4,2868.8 6470.0,2845.0 M 6475.0,2840.0 C 6475.0,2840.0 6475.0,2840.0 6475.0,2840.0 M 6480.0,2845.0 C 6480.0,2845.0 6480.0,2845.0 6480.0,2845.0 M 6475.0,2850.0 C 6475.0,2850.0 6475.0,2850.0 6475.0,2850.0 M 6470.0,2845.0 C 6473.4,2840.6 6483.6,2827.4 6487.0,2823.0 M 6513.0,2783.0 C 6513.0,2783.0 6513.0,2783.0 6513.0,2783.0 M 6547.0,2786.0 C 6547.0,2786.0 6547.0,2786.0 6547.0,2786.0 M 6534.0,2800.0 C 6534.0,2800.0 6534.0,2800.0 6534.0,2800.0 M 6516.0,2815.0 C 6516.0,2815.0 6516.0,2815.0 6516.0,2815.0" fill="none" stroke="black" /></svg>